<?xml version="1.0" encoding="utf-8"?>
<!-- Generator: Adobe Illustrator 22.0.1, SVG Export Plug-In . SVG Version: 6.00 Build 0)  -->
<svg version="1.1" id="圖層_1" xmlns="http://www.w3.org/2000/svg" xmlns:xlink="http://www.w3.org/1999/xlink" x="0px" y="0px"
	 viewBox="0 0 213.6 285.2" style="enable-background:new 0 0 213.6 285.2;" xml:space="preserve">
<style type="text/css">
	.st0{fill:#FFCB96;}
	.st1{fill:none;}
	.st2{fill:#F0B77D;}
	.st3{fill:#2D2D2D;}
	.st4{fill:#FAFAFA;}
	.st5{fill:#E3E3E3;}
	.st6{fill:#202020;}
	.st7{fill:#1E1E1E;}
	.st8{fill:#DF2623;}
	.st9{fill:#F1F2F2;}
	.st10{fill:#525252;}
</style>
<g>
	<g id="Right_hand_3_">
		<path class="st0" d="M56.6,81.6c-0.2,1-0.6,1.9-1.3,2.6c-0.6,0.7-1.5,1.2-2.4,1.6C52,86.2,51,86.5,50,86.7c-0.3,0-0.5,0.1-0.7,0.1
			c-0.3,0-0.5,0.1-0.7,0.1c-0.5,0.1-1,0.1-1.6,0.2c-1.1,0.2-2.1,0.4-3.1,0.8c-1,0.4-1.9,0.9-2.6,1.5c-1.6,1.2-2.6,2.8-3.3,4.3
			c-0.6,1.5-0.9,2.9-1.1,4.2c-0.1,1.3-0.1,2.3-0.1,3.2c0.1,1.3,0.3,2.3,0.5,2.7c-0.1,0-0.2,0-0.3,0c-0.6,0.1-1.2,0.2-1.8,0.3
			c-0.6,0.1-1.2,0.3-1.8,0.4c-0.6,0.2-1.1,0.3-1.7,0.5c-2.2,0.6-4.3,1.3-6.2,2c-3.9,1.4-7.2,2.9-9.8,4.2c-2.1,1-3.8,1.9-5.1,2.7
			c-0.3-0.4-0.9-1.1-1.7-2.2c-0.6-0.8-1.2-1.7-1.8-2.8c-0.3-0.6-0.6-1.1-0.8-1.8c-0.1-0.3-0.3-0.6-0.4-1c0-0.1-0.1-0.3-0.1-0.4
			c-0.1-0.2-0.1-0.4-0.2-0.6c-0.9-2.7-1-5.3-1-7.2c0-0.7,0-1.3,0-1.8c0.2,0.1,0.4,0.3,0.5,0.4c0.8,0.5,1.7,0.8,2.4,0.9
			c0.2,0,0.5,0,0.6,0c0.4,0,0.7-0.1,0.8-0.2c0.2-0.1,0.3-0.2,0.2-0.2c0-0.1-0.1-0.1-0.3-0.2c-0.2,0-0.4-0.1-0.7-0.2
			c-0.6-0.2-1.4-0.5-2.2-1.2c-0.8-0.7-1.6-1.8-2.2-3.1c-0.6-1.3-1.1-2.9-1.1-4.6c0-1.7,0.4-3.2,1.2-4.3c0.8-1.1,1.9-1.9,2.9-2.3
			c0.7-0.3,1.4-0.6,2-0.7c-0.1,0.3-0.2,0.6-0.3,1c-0.3,1.2-0.3,2.5-0.2,3.8c0.1,1.3,0.6,2.5,1.1,3.6c0.5,1.1,1.2,2,2,2.9
			c1.5,1.6,3.6,2.4,5.2,2.6c0.8,0.1,1.6,0,2.2-0.1c0.6-0.2,1.2-0.3,1.6-0.5c0.8-0.4,1.2-0.7,1.1-0.8c-0.1-0.1-0.6-0.1-1.4,0
			c-0.4,0.1-0.9,0-1.5,0.1c-0.6,0-1.2,0-1.9-0.2c-1.3-0.3-2.8-1-4-2.4c-0.6-0.7-1.1-1.5-1.5-2.4c-0.4-0.9-0.7-1.9-0.8-2.9
			c-0.1-1-0.1-2.1,0.1-3c0.2-0.9,0.6-1.8,1.1-2.6c0.5-0.8,1-1.4,1.6-1.9c0.6-0.5,1.2-0.9,1.9-1.1c0.3-0.1,0.6-0.2,0.9-0.2
			c0.3,0,0.6-0.1,0.9-0.1c0.3,0,0.5,0,0.8,0c0.1,0,0.2,0,0.3,0.1c-0.6,1.2-1.1,2.6-1.2,4c0,0.5-0.1,1-0.1,1.5c0,0.5,0.1,1,0.1,1.5
			c0.1,1,0.4,1.9,0.7,2.8c0.7,1.8,1.9,3.4,3.5,4.4c0.8,0.5,1.7,0.8,2.6,0.9c0.9,0.1,1.8,0,2.6-0.2c0.8-0.2,1.5-0.6,2.1-1.1
			c0.6-0.4,1.1-1,1.5-1.5c0.8-1.1,1.2-2.3,1.3-3.4c0-0.3,0-0.5,0-0.8c0,0,0-0.1,0-0.2c0-0.1,0-0.2,0-0.3c0.1-0.4,0.1-0.7,0.2-1
			c0.1-0.3,0.2-0.5,0.4-0.6C31.9,82,32,82,32.2,82c0.3,0,0.5,0.1,0.5,0c0,0,0-0.1-0.1-0.2c-0.1-0.1-0.2-0.2-0.4-0.2
			c-0.2-0.1-0.5-0.1-0.8,0c-0.3,0.1-0.6,0.4-0.8,0.7c-0.2,0.3-0.4,0.7-0.5,1.2c0,0.1-0.1,0.2-0.1,0.3c0,0.1-0.1,0.2-0.1,0.4
			c0,0.2,0,0.4-0.1,0.6c-0.2,0.8-0.5,1.8-1.3,2.6c-0.3,0.4-0.8,0.8-1.3,1.1c-0.5,0.3-1,0.6-1.6,0.7c-0.6,0.1-1.2,0.2-1.8,0.1
			c-0.6-0.1-1.2-0.3-1.8-0.6c-1.2-0.7-2.1-1.9-2.6-3.4c-0.3-0.7-0.5-1.7-0.6-2.5c-0.1-0.4-0.1-0.8-0.1-1.3c0-0.4,0-0.8,0-1.2
			c0.2-1.6,0.8-3.2,1.8-4.5c0.3-0.3,0.5-0.6,0.8-0.9c0.3-0.2,0.6-0.5,0.8-0.7c0.3-0.2,0.6-0.4,0.9-0.6c0.3-0.2,0.7-0.3,1-0.5
			c1.4-0.6,2.8-0.8,4.1-0.8c1.3,0,2.5,0.3,3.4,0.9c1.9,1.1,2.9,2.9,3.4,4c0.2,0.3,0.3,0.6,0.4,0.8c0.1,0.2,0.2,0.4,0.3,0.6
			c0,0,0,0,0,0c-0.7,0.9-1.2,1.7-1.5,2.4c-0.1,0.3-0.2,0.5-0.3,0.7c0,0,0,0.1,0,0.1c0,0.1-0.1,0.2-0.1,0.2c-0.1,0.3-0.2,0.6-0.3,0.8
			c-0.1,0.4-0.2,0.7-0.1,0.7c0.1,0,0.2-0.2,0.5-0.5c0.1-0.2,0.3-0.4,0.4-0.7c0.2-0.3,0.4-0.6,0.6-0.9c1-1.4,2.5-3.3,5.1-4.8
			c1.1-0.7,2.4-1.3,3.9-1.6c0.2-0.1,0.4-0.1,0.6-0.1c0.8-0.2,1.7-0.3,2.6-0.4c0.9,0,1.9,0,2.9,0.1c1,0.1,1.9,0.2,2.9,0.5
			c0.9,0.3,1.8,0.7,2.5,1.3c0.7,0.6,1.1,1.4,1.4,2.3C56.8,79.5,56.7,80.6,56.6,81.6z"/>
		<path class="st1" d="M11,113.7c1-0.6,2.1-1.1,3.1-1.7c2.3-1.2,4.6-2.2,6.9-3.2c5.2-2.2,10.7-4.2,16.3-5c-0.6-1.7-0.6-3.8-0.5-5.6
			c0.5-5.3,3.6-9.6,8.8-10.9c2.5-0.6,5.1-0.6,7.5-1.7c2.4-1.1,3.6-3.2,3.6-5.9c-0.2-6-8.8-5.9-12.9-4.7c-2.5,0.7-4.8,2-6.7,3.9
			c-0.7,0.7-1.4,1.5-2,2.4c-0.2,0.2-1.4,2.4-1.7,2.3c-0.4-0.1,0.8-2.6,0.9-2.8c0.3-0.5,0.6-1.1,1-1.6c0.4-0.6,0.4-0.5,0.1-1.2
			c-0.7-1.9-2.1-3.8-3.8-4.8c-4.1-2.4-10.1,0-12,4.1c-1.8,3.8-0.9,11.2,4.2,12c2.4,0.4,4.8-1.2,5.7-3.4c0.4-1.1,0.3-2.3,0.9-3.3
			c0.3-0.5,0.7-1,1.3-1.1c0.1,0,1.2,0.2,1,0.5c-0.1,0.1-0.7,0-0.8,0.1c-0.3,0.1-0.5,0.4-0.6,0.7c-0.1,0.3-0.1,1.3-0.3,1.5
			c0,1.3-0.2,2.5-0.9,3.7c-1.6,2.6-4.8,4-7.7,3.1C16.6,89,15.3,80.9,17.9,76c-5.1-1-8.1,4.7-7.4,9.1c0.4,2.3,1.6,4.6,3.4,6
			c1.7,1.4,3.8,1.7,6,1.5c0.1,0,2.1-0.3,1.5,0.2c-0.7,0.6-1.7,0.8-2.6,1.1c-2.1,0.2-4,0-5.9-1.2C9,90.3,7.2,84.7,8.8,80.3
			c-2.3,0.7-4.6,1.9-5.5,4.3C2.3,87,2.7,89.7,3.7,92c0.9,2.1,2.5,4.1,4.8,4.7c0.3,0.1,1.1,0.2,0.5,0.5c-0.4,0.2-0.8,0.3-1.2,0.2
			c-1.2,0-2.3-0.5-3.2-1.3c-0.3,5.6,0.8,11,4.3,15.5c0.4,0.6,0.8,1.1,1.3,1.6C10.5,113.8,10.4,114,11,113.7z"/>
		<g>
			<path class="st2" d="M37.2,95.8c0-0.1,0.1-0.2,0.1-0.2C37.3,95.6,37.3,95.7,37.2,95.8z"/>
			<path class="st2" d="M30.3,102.9c-6,3-12.2,6.3-14.1,8.1c0,0,19-5.5,21.3-7.2c0,0-1-5.2-0.3-8C37,96.7,35.6,100.4,30.3,102.9z"/>
			<path class="st2" d="M40,76.7c-2.5,1.5-4.1,3.4-5.1,4.8c-0.2,0.4-0.4,0.7-0.6,0.9c-0.2,0.3-0.3,0.5-0.4,0.7
				c-0.3,0.4-0.4,0.6-0.5,0.5c-0.1,0,0-0.3,0.1-0.7c0.1-0.2,0.1-0.5,0.3-0.8c0-0.1,0.1-0.2,0.1-0.2c-0.2,0.3-0.5,0.6-0.6,0.9
				c-0.7-2.6-2.8-0.1-2.2,1.4c0.2,0.5-0.9,3.7-0.9,3.7c-7.4,5.7-11.5,4.9-11.5,4.9c-6.5,0.6-9,3.8-9,3.8c6.9-0.4,11.2,2.6,11.2,2.6
				C22,93.8,31.7,90.5,32.6,87c1.1-1.3,2.6-4.7,5.3-4.2c-0.3-1.2,0-2.7,1-4c1.3-1.7,3.2-3.2,5.1-3.8C42.5,75.4,41.1,76,40,76.7z"/>
			<path class="st2" d="M4.6,96.2c0,0.5-0.1,1.1,0,1.8c0,1.9,0.1,4.5,1,7.2c0.1,0.2,0.1,0.4,0.2,0.6c-0.1-3.7,1.3-7.2,1.8-8.4
				c-0.7,0-1.6-0.3-2.4-0.9C4.9,96.5,4.8,96.4,4.6,96.2z"/>
		</g>
		<path class="st3" d="M59.2,78c-0.6-2.5-2.6-4.5-5.5-5.4c-1.6-0.5-3.2-0.7-4.9-0.7c-4,0-8.1,1.4-11,3.8c-0.5,0.4-0.9,0.8-1.3,1.2
			c-0.6-2.2-1.9-4.2-3.7-5.5c-2-1.4-4.9-1.9-7.9-1.2c-2.9,0.7-5.2,2.1-6.7,4.2c0,0,0,0.1-0.1,0.1c-0.3-0.1-0.5-0.2-0.7-0.2
			c-0.6-0.2-1.2-0.2-1.9-0.2c-1.4,0.1-2.8,0.6-4,1.5c-1,0.7-1.9,1.7-2.5,2.9c-0.1,0.1-0.1,0.2-0.1,0.3c0,0,0,0,0,0
			c-0.2,0-0.4,0-0.6,0c-0.7,0-1.5,0.2-2.2,0.4c-2.6,0.7-4.6,2.6-5.6,5.1c-0.9,2.5-0.7,5.4,0.5,8.2c0.5,1.1,1.1,2.1,1.8,2.9
			c0.1,0.2,0.3,0.3,0.5,0.5c0,0,0,0.1,0,0.1c-0.2,0.7-0.4,1.3-0.4,1.9c-0.6,3.1-0.2,6.6,1.1,9.5c1.1,2.5,3,5.9,5.9,7.4l0.3,0.1
			l0.3-0.2c0,0,0.3-0.2,0.8-0.4l-0.3-0.5l0.3,0.5l0,0l0,0l-0.5-0.9c0,0,0,0,0.1,0c0,0-0.1-0.1-0.1-0.1c0-0.1-0.1-0.2-0.2-0.2
			c-0.4-0.5-0.8-1.1-1.2-1.6c-2.9-3.8-4.3-8.5-4.2-14.1C5.9,97.7,6.8,98,7.9,98c0.6,0,1-0.1,1.4-0.3c0.5-0.2,0.6-0.6,0.5-0.8
			c-0.1-0.5-0.7-0.7-1.2-0.8c-2.5-0.6-3.8-3-4.4-4.4c-1.1-2.4-1.2-5-0.4-6.9c0.6-1.6,2-2.8,4.1-3.6c-1,4.4,0.9,9.6,4.7,12
			c1.4,0.9,3,1.4,4.8,1.4c0.5,0,0.9,0,1.5-0.1l0.3-0.1c0.8-0.2,1.8-0.5,2.5-1.1c0.4-0.3,0.3-0.7,0.3-0.8C21.8,92,21.2,92,21,92
			c-0.4,0-0.9,0.1-1.2,0.1c-0.3,0-0.7,0-1,0c-1.8,0-3.3-0.5-4.6-1.4c-1.6-1.3-2.8-3.4-3.2-5.7c-0.4-2.3,0.4-4.9,1.8-6.6
			c0.8-0.9,2.2-2,4.2-1.9c-1.3,2.9-1.3,6.7-0.1,9.7c1,2.6,2.9,4.4,5.3,5.3c3,1,6.7-0.5,8.4-3.3c0.7-1.1,1-2.3,1-3.8
			c0.1-0.2,0.1-0.5,0.2-0.9c0-0.2,0-0.4,0.1-0.5c0.1-0.3,0.2-0.3,0.2-0.3l0.2,0c0.1,0,0.2,0,0.3,0c0.1,0,0.3,0,0.5-0.1
			c-0.2,0.5-0.3,1-0.2,1.2L33,84l0.2,0.1l0.2,0c0.4,0,0.7-0.3,1.9-2.2c0.1-0.2,0.2-0.3,0.2-0.4c0.6-0.8,1.3-1.6,2-2.3
			c1.8-1.8,4-3,6.4-3.7c1.3-0.4,3-0.6,4.6-0.6c2.2,0,7.5,0.5,7.6,4.8c0.1,2.5-1.1,4.4-3.2,5.4c-1.5,0.7-3,0.9-4.6,1.1
			c-0.9,0.1-1.8,0.3-2.8,0.5c-5.2,1.3-8.8,5.6-9.3,11.4c-0.2,2.5-0.1,4.4,0.5,5.8l0.2,0.4l1.1-0.2l0.1-0.4c0.1-0.8,0.1-1.5,0.2-2.3
			c0.1-1.5,0.2-3,0.6-4.5c0.7-2.6,2.1-4.6,4-5.9c1.7-1.1,3.6-1.4,5.6-1.6c0.6-0.1,1.2-0.2,1.7-0.2c3.4-0.6,5.8-1.7,7.3-3.5
			C59.2,83.8,59.8,80.9,59.2,78z M33.2,81.6c-0.3-0.6-1.5-0.6-1.5-0.6c-0.5,0-1.2,0.3-1.8,1.4c-0.4,0.7-0.5,1.3-0.6,2
			c-0.1,0.5-0.2,1-0.3,1.4c-0.8,2-3,3.4-5.1,3.1c-1.9-0.3-3-1.7-3.6-2.7c-1.3-2.4-1.4-6.1-0.2-8.5c1.3-2.8,4.6-4.8,7.8-4.8
			c1.2,0,2.4,0.3,3.4,0.9c1.5,0.9,2.9,2.6,3.6,4.6l0.1,0.1c0,0.1,0.1,0.1,0.1,0.2c0,0.1-0.1,0.1-0.1,0.2l-0.1,0.1
			c-0.4,0.5-0.7,1.1-1,1.6c-0.1,0.2-0.3,0.7-0.6,1.2C33.3,81.6,33.3,81.6,33.2,81.6z"/>
	</g>
	<g id="Right_hand_2_">
		<path class="st0" d="M203.5,260.5c-0.3-2.2-0.7-3.8-0.9-4.7c-1.3,0-2.7,0-4.2-0.1c-3.2-0.2-6.7-0.6-10-1.3
			c-2.9-0.6-5.6-1.2-7.8-1.9c-0.4,0.5-1.4,1.5-2.8,2.9c-1,1-2.1,2.2-3.2,3.6c-1.1,1.4-2.4,3-3.3,4.8c-0.4,0.9-0.8,1.8-0.9,2.7
			c-0.1,0.4-0.1,0.9,0,1.3c0,0.2,0.1,0.4,0.1,0.6c0.1,0.2,0.1,0.4,0.2,0.6c0.3,0.8,0.7,1.5,1.2,2c0.5,0.5,1.1,0.8,1.7,0.9
			c0.6,0.1,1.2,0.2,1.7,0.1c0.5,0,1-0.2,1.3-0.3c0,0,0.1,0,0.1,0c0.7-0.5,1.4-0.9,1.9-1.4c0.8-0.7,1.2-1.3,1.5-1.8
			c0.3-0.5,0.3-0.8,0.4-0.8c0.1,0,0.1,0.3,0,0.9c-0.1,0.3-0.2,0.6-0.3,0.9c-0.2,0.4-0.5,0.9-0.9,1.4c-0.7,0.8-1.8,1.7-3,2.5
			c-0.6,0.4-1.3,0.8-2.1,1.1c-0.4,0.2-0.7,0.4-1.1,0.5c-0.2,0.1-0.4,0.2-0.6,0.2c-0.1,0,0,0-0.1,0c0,0,0,0,0,0c0,0,0,0,0,0l0,0.1
			c0,0,0,0.1,0,0.1l0.1,0.3c0.1,0.3,0.3,0.7,0.5,1c0.2,0.3,0.4,0.6,0.6,0.8c0.3,0.4,0.6,0.7,1,1c0.8,0.7,1.7,1.3,2.7,1.6
			c0.2,0.1,0.5,0.2,0.8,0.3c0.2,0.1,0.5,0.1,0.7,0.2c0.5,0.1,0.9,0.1,1.4,0c0.8-0.1,1.6-0.6,2.2-1.1c0.6-0.6,1.2-1.2,1.6-1.8
			c0.9-1.2,1.4-2.4,1.8-3.1c0.4-0.8,0.6-1.2,0.7-1.2c0.1,0,0.1,0.4-0.1,1.1c0,0.1,0,0.2-0.1,0.3c-0.2,0.9-0.6,2.1-1.4,3.5
			c-0.4,0.7-0.9,1.5-1.6,2.2c-0.4,0.4-0.9,0.8-1.4,1.1c0.4,0.1,0.8,0.3,1.2,0.4c0.4,0.1,0.8,0.3,1.3,0.4c0.1,0,0.2,0,0.3,0.1
			c0.4,0.1,0.7,0.2,1.2,0.2c1.1,0.1,2.2,0.1,3.2-0.3c1-0.4,1.7-1.3,2.2-2.2c0.5-0.9,0.8-1.8,1-2.6c0.4-1.6,0.6-2.6,0.8-2.6
			c0.1,0,0.2,0.2,0.2,0.6v0c0.1,0.5,0.1,1.3,0,2.3c-0.1,0.9-0.3,1.9-0.8,3c-0.3,0.7-0.8,1.5-1.5,2.1c0.1,0,0.1,0,0.2,0
			c0.7,0,1.6,0,2.6-0.3c0.4-0.1,0.7-0.2,1.1-0.3c1.5-0.6,3.1-1.7,4.5-3.3c1.5-1.5,2.7-3.6,3.4-5.9c0.7-2.3,0.9-4.7,0.9-6.9
			C204,264.2,203.8,262.2,203.5,260.5z"/>
		<g>
			<path class="st2" d="M180.6,252.7c0,0,17.5,4.5,23.2,10.8c0,0-0.3-7-1.1-8C202.7,255.5,185.6,254.5,180.6,252.7z"/>
			<path class="st2" d="M194,282.7c-1,0.3-1.9,0.3-2.6,0.3c-0.1,0-0.1,0-0.2,0c0.7-0.6,1.2-1.4,1.5-2.1c0.5-1.1,0.7-2.2,0.8-3
				c0.1-1,0.1-1.8,0-2.3C194.2,276.4,195.8,279,194,282.7z"/>
			<path class="st2" d="M184.9,282.5c-0.1,0-0.2-0.1-0.3-0.1c-0.5-0.1-0.9-0.3-1.3-0.4c-0.5-0.1-0.9-0.3-1.2-0.4
				c0.5-0.3,1-0.7,1.4-1.1c0.7-0.7,1.2-1.5,1.6-2.2c0.8-1.4,1.2-2.6,1.4-3.5c0-0.1,0-0.2,0.1-0.3
				C187.1,275.6,188.3,278.9,184.9,282.5z"/>
			<path class="st2" d="M180.4,269.7c0,1-0.6,5.4-6.5,8.2c-0.2-0.3-0.4-0.6-0.6-0.8c-0.2-0.3-0.4-0.7-0.5-1l-0.1-0.3
				c0,0,0-0.1,0-0.1l0-0.1c0,0,0,0,0,0c0,0,0,0,0,0c0,0,0,0,0.1,0c0.2-0.1,0.4-0.2,0.6-0.2c0.4-0.2,0.8-0.3,1.1-0.5
				c0.7-0.4,1.4-0.7,2.1-1.1c1.3-0.8,2.3-1.6,3-2.5C179.9,270.6,180.2,270.1,180.4,269.7z"/>
		</g>
	</g>
	<g id="Head_2_">
		<g id="Cook_hat_1_">
			<path class="st4" d="M201.6,33.5c-1.1-4.9-4.2-8.9-8.9-10.8c-1.9-0.7-3.9-1.1-5.9-1.3c-2.9-0.2-5.9,0.1-8.7,0.5
				c-0.4,0.1-0.9,0.1-1.3,0.2c-0.3,0.1-0.3,0-0.4,0.4c0,0.3-0.1,0.6-0.1,1c-0.2,1.3-0.5,2.6-1,3.8c-0.8,1.9-1.9,3.9-3.6,5.1
				c0,0,0,0,0,0c-0.2,0.1-0.7,0.4-0.4,0.1c0,0,0.1-0.1,0.1-0.1c0.5-0.6,0.9-1.2,1.3-1.9c1.2-2,2-4.3,2.3-6.6
				c0.2-1.8,0.3-3.7-0.1-5.5c-0.1-0.4-0.2-0.8-0.3-1.2c-0.7-2.1-1.9-4-3.3-5.7c-3.2-3.8-7.7-6.4-12.5-7.6c-5.2-1.3-10.7-1.1-16,0.2
				c-4.4,1.1-8.7,3.1-12,6.2c-0.2,0.2-0.4,0.4-0.6,0.6c-4.1,4.3-6,10.1-6.4,16c0,0.7-0.1,1.3-0.1,2c0,0.2,0.1,0.8-0.1,0.9
				c-0.1,0-0.4-2-0.5-2.1c-0.3-3.4,0.2-6.8,1.3-10c-2-0.1-3.9-0.5-5.9-0.6c-2.4-0.1-4.9,0-7.3,0.3c-5.3,0.7-10.4,2.6-14.5,5.9
				c-3.9,3.1-7,7.4-8,12.3c-1,4.9,0.5,10.2,4.2,13.6c3.7,3.4,9,4.5,13.9,4c2.6-0.3,4.8-1.2,7.1-2.2c2.3-1,4.6-1.8,7.1-2.4
				c1-0.2,2.1-0.4,3.1-0.5c0.1,0,1.2,0,1.2,0.1c-0.2,0.3-1,0.3-1.3,0.4c-1.1,0.3-2.2,0.6-3.3,1c-2.4,0.8-4.8,1.9-7.1,3
				c-1.1,0.5-2.2,1.1-3.3,1.4c-0.3,0.1-1.5,0.3-1.4,0.6c0,0.6,0,1.2,0,1.7c-0.1,1.1-0.3,2.2-0.6,3.3c-0.1,0.6-0.3,1.1-0.5,1.7
				c3.2-1,6.7-1.4,10-1.6c3.1-0.2,6.3-0.3,9.4-0.2h0.1c1.6,0,3.2,0.1,4.8,0.3c4.8,0.4,9.6,1.4,14.3,2.6c0.8,0.2,10.3,3.4,10.1,3.9
				c-0.1,0.2-4.1-1.3-4.4-1.4c-2.4-0.8-4.9-1.4-7.4-2c-5.1-1.2-10.4-1.9-15.7-2c-0.7,0-1.3,0-2,0h-0.2c-4.5,0-8.9,0.2-13.3,0.8
				c-1.7,0.2-3.4,0.5-5.1,0.8c-0.5,0.1-1.1,0-1.2,0.5c-0.4,1.3-1,2.5-1.5,3.8c-0.5,1.2-1.2,2.3-1.8,3.3c5.7-3,12.7-3.8,19.1-3.7h0.3
				c0.1,0,0.2,0,0.4,0h0.3c0.7,0,1.4,0,2.1,0.1c0.2,0,0.4,0,0.6,0c6.5,0.3,12.9,1.4,19,3.5c3.2,1.1,6.3,2.3,9.3,3.8
				c2.4,1.1,5.4,2.4,7.2,4.4c-0.8-4.5-0.4-9.2,0.2-13.7c0.5-4.6,1.4-9,2.6-13.5c0.1-0.5,0.3-1,0.4-1.5c0.5-1.7,1-3.4,1.7-5.1
				c0-0.1,0.3-0.5,0.5-0.9v0c0.2-0.3,0.4-0.6,0.4-0.5c0.2,0.7-0.3,1.9-0.4,2.6c0,0,0,0,0,0c-0.4,2-0.9,4-1.3,6
				c-0.3,1.2-0.5,2.5-0.8,3.8c-0.1,0.3-0.3,0.6,0.1,0.8c0.2,0.1,0.5,0.3,0.7,0.4c0.5,0.3,1,0.5,1.5,0.8c1.9,0.9,4.1,1.3,6.2,1.6
				c0.1,0,0.2,0,0.4,0.1c0.2,0.1,0.4,0.2,0.5,0.2c3,0.4,6.1,0.4,9.1-0.2c1.4-0.3,2.7-0.7,4-1.2c0.4-0.2,0.9-0.4,1.3-0.6
				C197.5,53,203.7,43,201.6,33.5z"/>
			<g>
				<g>
					<path class="st5" d="M130.8,10.3c-0.2,0.2-0.4,0.4-0.6,0.7c-4.1,4.3-6,10.1-6.4,16c0,0.7-0.1,1.3-0.1,2c0,0.2,0.1,0.8-0.1,0.9
						c-0.1,0-0.4-2-0.5-2.1c-0.3-3.4,0.2-6.8,1.3-10c-2-0.1-3.9-0.5-5.9-0.6c-2.4-0.1-4.9,0-7.3,0.3c-5.3,0.7-10.3,2.7-14.5,6
						c-3.9,3.1-7,7.4-8,12.3c-1,4.9,0.5,10.3,4.2,13.6c3.7,3.4,9,4.5,13.9,4c2.5-0.3,4.8-1.2,7.1-2.2c2.3-1,4.6-1.8,7.1-2.4
						c1-0.2,2.1-0.4,3.1-0.5c0.1,0,1.2,0,1.2,0.1c-0.2,0.3-1,0.3-1.3,0.4c-1.1,0.3-2.2,0.6-3.3,1c-2.4,0.8-4.8,1.9-7.1,3
						c-1.1,0.5-2.2,1.1-3.3,1.5c-0.3,0.1-1.5,0.3-1.4,0.6c0,0.6,0,1.2-0.1,1.7c-0.2,1.7-0.5,3.4-1,5c3.2-1,6.7-1.4,10-1.6
						c3.2-0.2,6.4-0.3,9.5-0.2c2.6-15.9,11.7-37.5,11.7-37.5C131.1,19.8,130,14.7,130.8,10.3z"/>
					<path class="st5" d="M108.5,62.7c-0.5,0.1-1.1,0-1.2,0.5c-0.4,1.3-1,2.5-1.5,3.8c-0.5,1.2-1.2,2.3-1.8,3.3
						c5.7-3,12.7-3.8,19.1-3.7h0.3c0.1,0,0.2,0,0.4,0h0.3c0.7,0,1.4,0,2.1,0.1c0.1-1.6,0.5-3.8,0.9-5.5c-4.5,0-8.9,0.2-13.3,0.8
						C111.9,62.1,110.2,62.4,108.5,62.7z"/>
				</g>
				<path class="st5" d="M178,22c-0.4,0.1-0.9,0.1-1.3,0.2c-0.3,0.1-0.3,0-0.4,0.4c0,0.3-0.1,0.6-0.1,1c-0.2,1.3-0.5,2.6-1,3.8
					c-0.8,1.9-1.9,3.9-3.6,5.1c0,0,0,0,0,0c7.5,1.3,4.2-9.5,17.2-10.9C184.8,20.8,180.9,21.5,178,22z"/>
				<path class="st5" d="M167.6,45.8C167.6,45.8,167.6,45.8,167.6,45.8c-0.4,2-0.9,4-1.3,6c-0.3,1.2-0.5,2.5-0.8,3.8
					c-0.1,0.3-0.3,0.6,0.1,0.8c0.2,0.1,0.5,0.3,0.7,0.4c0.5,0.3,1,0.5,1.5,0.8c1.9,0.9,4.1,1.3,6.2,1.6c0.3,0.1,0.6,0.1,0.9,0.1
					C168.5,57.1,167.6,49.6,167.6,45.8z"/>
			</g>
		</g>
		<g>
			<path class="st0" d="M167.7,117.3c-0.1-0.4-0.2-0.8-0.4-1.2c-0.1-0.4-0.2-0.8-0.4-1.1c-0.1-0.4-0.3-0.8-0.4-1.1
				c-0.5-1.5-1.1-2.9-1.7-4.4c-0.9-2.2-1.5-4.5-1.9-6.6c0,0,0,0,0,0c-0.1-0.7-0.3-1.3-0.4-2c-0.2-1-0.3-1.9-0.4-2.9
				c0-0.1,0-0.2,0-0.3c0-0.3-0.1-0.5-0.1-0.8c-0.1-1.3-0.2-2.5-0.3-3.7c-0.2-4.7,0-8.5,0.2-11.1c0.1-1.5,0.3-2.6,0.5-3.3
				c-0.1-0.1-0.2-0.2-0.4-0.3c-0.4-0.3-1.1-0.7-2.1-1.1c-1.8-0.9-4.6-2.1-8.1-3.4c-3.5-1.3-7.7-2.7-12.4-3.8
				c-4.7-1.1-10.1-1.6-15.7-1.7c-5.6-0.1-10.9,0.5-15.5,1.9c-2.3,0.7-4.3,1.7-6,2.8c-1.7,1.2-2.9,2.7-3.6,4.3
				c-0.8,1.6-1.1,3.2-1.2,4.6c-0.1,1.4-0.1,2.7,0,3.7c0.2,2,0.5,3.1,0.4,3.2c0,0-0.1-0.1-0.2-0.2c-0.3,0.4-1,1-2.1,1.9
				c-0.2,0.2-0.4,0.3-0.6,0.5c-0.2,0.2-0.4,0.4-0.6,0.6c-0.4,0.4-0.9,0.9-1.4,1.4c-0.5,0.5-1,1.1-1.6,1.7c-0.3,0.3-0.5,0.6-0.8,0.9
				c-0.3,0.3-0.6,0.6-0.8,1c-2.2,2.8-4.5,6.5-6,11c-1.5,4.5-2.1,9.7-1.4,15.1l0,0.5l0.1,0.5c0.1,0.3,0.1,0.7,0.2,1
				c0.1,0.3,0.1,0.7,0.2,1l0.1,0.5c0,0.2,0.1,0.3,0.1,0.5c0.4,1.3,0.7,2.5,1.2,3.7c0.2,0.6,0.5,1.2,0.7,1.8c0.3,0.6,0.6,1.1,0.9,1.7
				c0.5,1.1,1.2,2.1,1.9,3.1c0.1,0.3,0.3,0.5,0.5,0.7l0.5,0.7c0.2,0.2,0.4,0.4,0.5,0.7l0.3,0.3l0.3,0.3c0.4,0.4,0.8,0.8,1.2,1.2
				l0.3,0.3l0.3,0.2c0.2,0.2,0.4,0.3,0.6,0.5c0.8,0.7,1.7,1.2,2.5,1.7c0.4,0.3,0.8,0.4,1.2,0.7c0.4,0.2,0.8,0.4,1.2,0.6
				c3.3,1.4,6.2,1.8,8.2,2c0.8,0.1,1.4,0.1,1.9,0.1c-0.2-0.2-0.3-0.4-0.5-0.6c-0.8-1.1-1.3-2.1-1.9-3c-1.1-1.8-2-3.2-2.9-4
				c-0.4-0.4-0.8-0.7-1-0.9c-0.2-0.2-0.3-0.4-0.3-0.4c0-0.1,0.2,0,0.5,0.1c0.3,0.1,0.8,0.3,1.3,0.7c1.1,0.7,2.3,2,3.6,3.8
				c1.3,1.7,2.5,3.9,4.7,5.3c1.1,0.7,2.4,1.2,3.8,1.4c1.4,0.2,3,0.3,4.5,0.2c3.1-0.3,5.8-1.5,8-3.1c2.2-1.6,4.1-3.3,5.8-4.7
				c1.7-1.4,3.3-2.3,4.5-2.6c1.2-0.3,1.9-0.2,1.9-0.1c0,0.2-0.6,0.3-1.6,0.9c-1,0.5-2.4,1.5-3.9,3c-1,0.9-2.1,2-3.3,3.2
				c0.7,0.2,1.6,0.4,2.8,0.7c2.5,0.6,6.1,1.7,10.7,1.8c2.3,0,4.8-0.2,7.3-1c2.5-0.7,5.1-2,7.6-3.7c0.6-0.4,1.2-0.9,1.8-1.3
				c0,0,0,0,0,0c1.8-1.4,3.5-3.1,4.9-5c1.9-2.6,3-5.8,3.4-9.1c0.3-3.4-0.2-6.8-1-9.9C167.9,118.1,167.8,117.7,167.7,117.3z"/>
			<path class="st0" d="M174.1,85.3c-1.2-0.6-2.5-0.9-3.7-1c-1.2-0.1-2.3,0-3.2,0.4c-1.9,0.8-3,2.2-3.8,3.1
				c-0.2,0.3-0.4,0.6-0.6,0.8c0.1,1.4,0.2,2.9,0.3,4.5c0.1,1.2,0.3,2.3,0.4,3.6c0.2,1.2,0.4,2.5,0.7,3.9c0.5,2.6,1.2,5.4,2.4,8.2
				c0.1,0.2,0.2,0.4,0.2,0.6c0.1,0,0.3,0.1,0.5,0.1c0.6,0.1,1.3,0.1,2-0.1c0.3-0.1,0.7-0.3,1.1-0.6c0.2-0.1,0.4-0.3,0.6-0.4
				c0.2-0.1,0.4-0.3,0.6-0.5c0.7-0.7,1.3-1.6,1.7-2.8c0.4-1.2,0.7-2.5,1.1-3.9c0.2-0.7,0.4-1.4,0.7-2.1c0.3-0.7,0.6-1.5,0.8-2.2
				c0.1-0.4,0.3-0.7,0.4-1.1c0.1-0.4,0.2-0.7,0.3-1.1c0.3-0.7,0.4-1.5,0.5-2.3c0.2-1.6,0.1-3.1-0.4-4.4
				C176.3,86.8,175.3,85.8,174.1,85.3z M173.9,97.4c-0.1,0.6-0.4,1.1-0.7,1.5c-0.3,0.4-0.6,0.7-1,0.9c-1.3,0.9-2.2,1-2.3,0.9
				c-0.1-0.2,0.7-0.7,1.6-1.7c0.4-0.5,0.9-1.1,1-1.8c0.1-0.3,0-0.7-0.2-1c-0.1-0.2-0.2-0.4-0.3-0.6c-0.1-0.1-0.1-0.2-0.2-0.3
				l-0.2-0.2c-0.6-0.6-1.4-0.7-2.2-0.5c-0.8,0.2-1.4,0.6-1.9,1c-0.4,0.3-0.6,0.6-0.9,0.8c-0.2,0.8-0.4,1.6-0.5,2.3
				c-0.3,1.4-0.5,2.3-0.7,2.3c-0.2,0-0.3-0.9-0.3-2.4c0-1.5,0.2-3.6,1.1-5.8c0.5-1.1,1.1-2.1,2-2.8c0.9-0.7,1.9-0.9,2.8-0.9
				c0.8,0,1.4,0.2,1.8,0.4c0.4,0.2,0.6,0.4,0.5,0.5c0,0.1-0.3,0.1-0.7,0.1c-0.4,0-1,0-1.6,0.1c-0.6,0.1-1.3,0.4-2,0.9
				c-0.6,0.6-1.1,1.3-1.5,2.3c-0.1,0.3-0.2,0.6-0.3,0.9c0.5-0.4,1-0.8,1.8-1.1c0.5-0.2,1.2-0.2,1.8-0.1c0.7,0.1,1.3,0.5,1.8,0.9
				l0.3,0.4c0.1,0.1,0.2,0.3,0.3,0.4c0.2,0.3,0.3,0.5,0.4,0.8C173.9,96.1,174,96.9,173.9,97.4z"/>
			<g>
				<path class="st2" d="M167.7,117.3c-0.1-0.4-0.2-0.8-0.4-1.2c-0.1-0.4-0.2-0.8-0.4-1.1c-0.1-0.4-0.3-0.8-0.4-1.1
					c-0.5-1.5-1.1-2.9-1.7-4.4c-0.9-2.2-1.5-4.5-1.9-6.6c0.7,5.1-1.9,7.7-3.9,12.5c0.2-0.5,4.3,0,6,2.4c0.8,1.1,2.1,5,1.9,8.3
					c-0.3,4.8-1.6,12.5-6.2,16.4c1.8-1.4,3.5-3.1,4.9-5c1.9-2.6,3-5.8,3.4-9.1c0.3-3.4-0.2-6.8-1-9.9
					C167.9,118.1,167.8,117.7,167.7,117.3z"/>
				<path class="st2" d="M122.2,78.2c0,0-5,2.6-5.2,7c0,0,2.3,4.3,0.5,4.4c0,0-7.5-8.8-10.1-9.4c-2.6-0.7-4.4-0.3-6.3,1.2
					c-0.9,0.3-1.3,0.9-1.7,3c-0.3,1.7-0.1,3-0.2,4.5c-0.1,1.1,1.8,2.2,5.7,1.5c2.5-0.4,4.6,0.4,6,1.1c-0.6,1.1-0.8,3.4,0.8,6.3
					c0.9,1.7,1.2,2.3,3.3,3c0,0-2.5-4.9-2.1-6.7c0.3-1.3,0.6-1.9,0.7-2.2c1.9-1,4.2-1.9,6-1.5c0,0-0.6-4.1-0.1-6.6
					C119.9,81.3,121.3,79.4,122.2,78.2z"/>
				<path class="st2" d="M146.8,86.2c-1.9-1.1-7.4-5.1-8.3-5.3c-0.9-0.2-2.7,1.3-6.7,5.9c-3.7,4.2-3.7,7.1-3.7,7.1
					c12.1,0.4,18.3,3.4,21.1,3.7c2.8,0.2,2.1-0.8,1.5-2.5C150,92.9,148.7,87.3,146.8,86.2z"/>
				<path class="st2" d="M132.3,111.7c0,0,9.6-0.4,5.6,16.1c0,0,7.3-7.6,2.7-15.1C138.9,110.2,136.8,111,132.3,111.7z"/>
				<path class="st2" d="M102.1,139c-0.9-0.6-1.3-0.8-1.3-0.8s-0.5-0.2,0.5,1.5c2.5,4.1-1.5,6.1-10.2,1.6c0,0,6.3,6.8,16.8,5.9
					C107.9,147.1,103,139.6,102.1,139z"/>
				<path class="st2" d="M136.8,142.2c0.2-1.3,3-2.6,0.9-2.4c-2.1,0.2-7.6,6.2-7.6,6.2c13.6,4.4,20.3,1.9,20.3,1.9
					C136.7,147.8,136.5,143.5,136.8,142.2z"/>
				<path class="st2" d="M173.2,89.8c-1.5-1.1-4.7,1.1-4.7,1.1c-1.5,0.8-3.8,8.2-3.2,9.8c0.5,1.5,3.1,2,5.1,0.1
					c1.8-1.8,3.7-1.6,3.7-4.1C174,94,174.8,91,173.2,89.8z"/>
				<path class="st2" d="M96.4,90.1c-5.6,3.1-10.3,12.3-10.3,12.3s-1,1.1-0.9,1.9c-4.5,8.4-2.9,19-2.9,19c-0.6-4,0.5-9.4,1.1-11
					c0.6-1.6,1.6-2.6,2.9-2.5c5.1,0.3,9,6.6,10.3,8.7c1.4,2.2,4.1,8.2,5.1,9.3c0,0-5.9-13.4-6-14.1C95.6,112.9,89.2,100.1,96.4,90.1
					z"/>
				<g>
					<path class="st2" d="M123.9,142.6c-0.4,0-1,0.2-1.8,0.3c-1.5,0.2-3.6,0.4-5.9-0.1c-1.1-0.2-2.2-0.5-3.1-0.9
						c-0.9-0.4-1.8-0.8-2.4-1.1c-1.4-0.7-2.2-1.3-2.3-1.1c-0.1,0.1,0.4,1,1.7,2c0.6,0.5,1.5,1,2.5,1.5c1,0.4,2.1,0.9,3.4,1.1
						c2.5,0.5,4.8,0.2,6.4-0.4c0.8-0.2,1.4-0.6,1.8-0.8c0.4-0.2,0.6-0.4,0.6-0.5C124.6,142.5,124.3,142.5,123.9,142.6z"/>
				</g>
				<path class="st2" d="M113.7,69.3c-12.8,1.9-15.4,8.3-15.3,8.9c0,0,10.8-12.9,44.4-7.2C142.8,71,131.4,66.7,113.7,69.3z"/>
			</g>
			<path class="st2" d="M130.2,146.3c-0.6,0.5-1.3,1.1-2,1.6c-1.2,0.9-2.5,1.7-4,2.4c-1.5,0.6-3.2,1.1-4.9,1.2c-1.7,0.1-3.4,0-5-0.3
				c-1.6-0.3-3.2-0.9-4.4-1.8c-0.9-0.6-1.6-1.3-2.2-2c-0.5,0.1-1.3,0.2-2.3,0.2c-1.6,0.1-3.9-0.1-6.6-0.8c0.2,0.4,0.5,1,0.9,1.7
				c0.8,1.6,2.2,3.7,4.1,5.6c0.9,1,2,1.8,2.9,2.5c1,0.7,1.9,1.3,2.7,1.7c1,0.6,1.7,1,2.2,1.2c2.1-0.7,4.1-1.4,6-2.2
				c3.9-1.7,7.1-3.4,9.8-4.9c3.9-2.2,6.5-3.8,7.7-4.4c-0.7-0.2-1.4-0.5-1.9-0.7C131.8,147,130.8,146.6,130.2,146.3z"/>
			<path class="st6" d="M173.2,94.8c-0.1-0.1-0.2-0.3-0.3-0.4l-0.3-0.4c-0.5-0.5-1.1-0.8-1.8-0.9c-0.6-0.1-1.3-0.1-1.8,0.1
				c-0.8,0.2-1.3,0.7-1.8,1.1c0.1-0.3,0.2-0.6,0.3-0.9c0.4-1,0.9-1.8,1.5-2.3c0.6-0.5,1.3-0.8,2-0.9c0.6-0.1,1.2-0.1,1.6-0.1
				c0.4,0,0.6,0,0.7-0.1c0-0.1-0.1-0.3-0.5-0.5c-0.4-0.2-1-0.4-1.8-0.4c-0.8,0-1.9,0.2-2.8,0.9c-0.9,0.7-1.6,1.7-2,2.8
				c-0.9,2.2-1.1,4.3-1.1,5.8c0,1.5,0.1,2.4,0.3,2.4c0.2,0,0.4-0.9,0.7-2.3c0.1-0.7,0.3-1.5,0.5-2.3c0.2-0.3,0.5-0.5,0.9-0.8
				c0.5-0.4,1.2-0.9,1.9-1c0.8-0.2,1.6-0.1,2.2,0.5l0.2,0.2c0.1,0.1,0.1,0.2,0.2,0.3c0.1,0.2,0.2,0.4,0.3,0.6c0.2,0.4,0.3,0.7,0.2,1
				c-0.1,0.7-0.6,1.3-1,1.8c-0.9,1-1.7,1.5-1.6,1.7c0.1,0.2,1,0,2.3-0.9c0.3-0.2,0.6-0.5,1-0.9c0.3-0.4,0.6-0.9,0.7-1.5
				c0.2-0.6,0-1.3-0.2-1.9C173.5,95.3,173.4,95,173.2,94.8z"/>
			<g id="face_1_">
				<g>
					<g>
						<g>
							<path class="st3" d="M111,80.9c-1-0.9-2-1.7-3.1-2.2c-0.6-0.3-1.3-0.6-2-0.9c-0.7-0.2-1.7-0.3-2.5-0.1
								c-1.5,0.4-2.4,1.2-3.1,2c-0.9,1.1-1.5,2.3-1.4,2.9c0,0.2,0.2,0.4,0.3,0.5c0.1,0.1,0.3,0.1,0.4,0.1c0.4,0,0.7-0.3,1.4-0.8
								c0.3-0.2,0.6-0.5,1-0.8c0.7-0.5,1.3-0.8,1.8-0.9c0.3,0,0.6,0,0.9,0.1c0.3,0.1,0.8,0.3,1.4,0.6c2,1.1,3.7,2.6,4.8,3.5
								c0.3,0.3,0.6,0.5,0.8,0.7c0.8,0.7,1.2,1,1.6,1c0.1,0,0.2,0,0.3-0.1c0.2-0.1,0.3-0.3,0.4-0.5c0.2-0.7-0.6-2.1-1.3-3
								C112.6,82.4,111.8,81.6,111,80.9z"/>
							<path class="st3" d="M145.2,83.2c-0.9-0.8-1.9-1.5-2.9-2.2c-0.5-0.3-1.1-0.7-2-1.1c-0.4-0.2-0.8-0.3-1.2-0.4
								c-0.2-0.1-0.5-0.1-0.7-0.1l-0.3,0c-0.2,0-0.8,0-1.2,0.2c-0.3,0.1-0.6,0.3-0.7,0.4l-0.1,0.1c-0.2,0.1-0.3,0.2-0.5,0.3
								l-0.9,0.8c-0.6,0.5-1,1.1-1.5,1.6c-0.8,0.9-1.5,1.8-2.2,2.8c-2,2.9-1.7,3.4-1.3,3.7c0.1,0.1,0.3,0.1,0.5,0.1
								c0.4,0,1-0.3,2.9-2.2l2.4-2.4l0.1-0.1c0.4-0.4,0.8-0.8,1.3-1.2l0.8-0.6c0.1-0.1,0.1-0.1,0.2-0.1c0,0,0.1-0.1,0.2-0.1
								c0,0,0.1,0,0.1-0.1v0c0,0,0.1,0,0.1,0l0.1,0c0.2,0.1,0.5,0.2,0.7,0.2c0.6,0.2,1.2,0.5,1.7,0.8c0.9,0.5,1.8,1,2.5,1.5l1,0.6
								c1.5,0.9,2,1.2,2.4,1.2c0.3,0,0.4-0.1,0.5-0.2c0.2-0.1,0.2-0.3,0.2-0.6C147.5,85.2,145.7,83.6,145.2,83.2z"/>
						</g>
						<path class="st3" d="M108.8,85.8c-1.8-1-4.1-0.6-4.9,0.7c-0.9,1.4-2.5,2.5-2.5,2.5c2.1,2.5,4.8,0.1,6.1-0.3
							c1.3-0.3,3.4,1.5,4.1,1.1C112.2,89.4,110.6,86.8,108.8,85.8z"/>
						<path class="st3" d="M135.8,90.2c-1.2,1.1-3.5,2.2-3.5,2.2c-0.3-0.1-1,0.2,0,0.7c1,0.4,5.9-0.7,7.1,0c1.1,0.7,3,1.1,3,1.1
							c-0.5-0.6-0.1-2-1.5-4C139.7,88.2,137.1,89.1,135.8,90.2z"/>
					</g>
					<g>
						<path class="st3" d="M113.6,94.7l0.1-0.3c0.1-0.2,0.2-0.4,0.3-0.6c0.5-0.7,1.6-1.2,2.8-1.4c0.7-0.1,1.5-0.2,2.2-0.2l0.3,0
							l0.4,0c0.4,0,0.8,0,1.2,0.1c0.8,0.1,1.7,0.2,2.5,0.3c-0.6-0.9-1.1-1.8-1.7-2.6l-0.2-0.3c0-0.1-0.1-0.1-0.1-0.2l-0.1-0.1l0,0
							l-0.2-0.3c-0.1-0.2-0.2-0.4-0.3-0.6c-0.2-0.4-0.3-0.8-0.5-1.2c-0.1-0.4-0.2-0.8-0.3-1.2c-0.2-1.6,0.1-3.1,0.5-4.2
							c0.5-1.1,1-2,1.5-2.6c0.4-0.6,0.6-0.9,0.6-1c-0.1-0.1-0.5,0.1-1.1,0.5c-0.6,0.5-1.4,1.3-2.1,2.5c-0.7,1.2-1.3,2.9-1.1,4.9
							c0.1,0.5,0.1,1,0.2,1.5c0.2,0.5,0.3,1,0.5,1.5c0.1,0.2,0.2,0.5,0.3,0.7l0.2,0.4l0,0l0,0c0,0,0,0,0,0l0,0c0,0,0,0,0,0l0,0l0,0
							l-0.5,0c-0.8,0-1.7,0.1-2.6,0.3c-0.7,0.2-1.5,0.4-2.1,0.7c-0.7,0.4-1.4,0.9-1.8,1.5c-0.2,0.3-0.4,0.7-0.6,1.1
							c-0.1,0.2-0.1,0.4-0.2,0.6l-0.1,0.5c-0.1,0.7-0.1,1.4,0,2.1c0.2,1.4,1,2.6,2,3.3c1,0.7,2.1,1,3.1,1.1c2,0.1,3.5-0.7,4.3-1.4
							c0.8-0.7,0.9-1.3,0.8-1.4c-0.1-0.1-0.5,0.3-1.3,0.8c-0.8,0.4-2.1,0.9-3.7,0.6c-0.8-0.1-1.6-0.4-2.2-1
							c-0.7-0.5-1.1-1.3-1.2-2.3c0-0.5,0-1,0.1-1.5L113.6,94.7z"/>
					</g>
				</g>
				<g>
					<path class="st7" d="M103.6,126.7c4.1,9.9,4,11.2,14.6,12.6c10.6,1.3,15.4-0.7,17-8.9c1.6-8.3,1.1-12.4,3.8-14l-42.3-4.8
						C96.6,111.6,99.5,116.8,103.6,126.7z"/>
					<path class="st8" d="M127.7,126.7c-1.3,0.5-4.9,2.3-4.9,2.3s-4-2.3-9.7-1.1c-4.4,0.9-7.4,4-7.4,4c2.4,5.3,4,6.4,12.4,7.5
						c10.6,1.3,15.4-0.7,17-8.9c0.3-1.6,0.5-3,0.7-4.3C135.8,126.1,130.8,125.6,127.7,126.7z"/>
					<g>
						<path class="st9" d="M117.7,110.5l-18.1,2c0,0-0.6,6,5,7c5.6,1,27.7,3.5,29,2.9c1.4-0.6,2.5-2.1,2.9-4.5
							C137,115.5,117.7,110.5,117.7,110.5z"/>
						<g>
							<path class="st9" d="M107.2,131.5c-0.6,0-1,0.3-1.4,0.7c2.3,5,4.1,6.1,12.3,7.1c10.2,1.3,15-0.5,16.8-8.1
								C123.8,136.5,109.1,131.5,107.2,131.5z"/>
							<path class="st3" d="M122.7,133c-5.4,0-10.2-1.1-13.1-1.7c-1.2-0.3-1.9-0.4-2.4-0.4c-0.7,0-1.3,0.3-1.8,0.9l-0.3,0.3l0.2,0.4
								c2.4,5.3,4.3,6.4,12.8,7.5c2,0.3,3.8,0.4,5.4,0.4c0,0,0,0,0,0c7,0,10.6-2.7,12.1-9l0.3-1.2l-1.2,0.6
								C131.3,132.2,127.3,133,122.7,133z M123.4,139L123.4,139c-1.5,0-3.2-0.1-5.2-0.4c-7.8-1-9.5-1.9-11.6-6.4
								c0.2-0.1,0.4-0.2,0.6-0.2c0.3,0,1.1,0.2,2.1,0.4c2.7,0.6,7.8,1.7,13.4,1.7c4.3,0,8.1-0.7,11.3-2
								C132.5,137.1,129.4,139,123.4,139z"/>
						</g>
					</g>
					<path class="st3" d="M138.2,116.7c-0.5,0.3-1,0.9-1.4,1.8c-0.8,1.7-1.1,4.3-1.6,7.3c-0.4-0.2-1.1-0.4-2.1-0.5
						c-0.8-0.1-1.8-0.1-2.9,0c-0.5,0.1-1.1,0.1-1.7,0.3c-0.3,0.1-0.6,0.1-0.9,0.2c-0.3,0.1-0.6,0.2-0.9,0.3c-1.5,0.5-2.7,1.2-3.7,2
						c-0.3-0.3-1.1-0.7-2.3-1c-1.6-0.4-4-0.8-6.7-0.5c-1.3,0.2-2.6,0.5-3.6,1c-0.3,0.1-0.5,0.3-0.8,0.4c-0.2,0.1-0.5,0.3-0.7,0.4
						c-0.4,0.3-0.8,0.6-1.1,0.9c-0.6,0.6-1.1,1.1-1.3,1.5c-0.7-1.6-1.4-3.3-2.1-4.8c-0.8-1.8-1.6-3.5-2.3-5
						c-2.9-6.1-5.1-9.7-5.4-9.6c-0.2,0.1,1.5,3.9,4.1,10.1c0.6,1.6,1.3,3.3,2.1,5.1c0.7,1.8,1.5,3.8,2.4,5.9c0.5,1,1,2.1,1.8,3.2
						c0.8,1,1.9,2,3.1,2.5c1.2,0.6,2.5,0.9,3.8,1.2c1.3,0.3,2.5,0.4,3.8,0.6c2.6,0.3,5.2,0.6,7.7,0.4c0.6-0.1,1.3-0.1,1.9-0.3
						c0.3-0.1,0.6-0.1,0.9-0.2c0.3-0.1,0.6-0.2,0.9-0.3c1.2-0.4,2.4-1,3.3-1.8c0.9-0.8,1.7-1.8,2.2-2.8c0.5-1,0.9-2.1,1.1-3.1
						c0.1-0.5,0.2-1,0.3-1.5c0.1-0.5,0.2-0.9,0.2-1.4c0.1-0.9,0.3-1.8,0.4-2.6c0.4-3.4,0.5-6.1,1.1-7.8c0.5-1.7,1.5-2.2,1.4-2.4
						C138.9,116.4,138.6,116.4,138.2,116.7z M134.6,129c-0.1,0.4-0.2,0.9-0.3,1.4c-0.1,0.4-0.2,0.9-0.3,1.4
						c-0.5,1.8-1.4,3.7-2.9,4.9c-0.7,0.7-1.7,1.1-2.7,1.4c-0.3,0.1-0.5,0.2-0.8,0.2c-0.3,0.1-0.5,0.1-0.8,0.2
						c-0.5,0.1-1.1,0.1-1.7,0.2c-2.3,0.2-4.8-0.1-7.3-0.4c-1.3-0.2-2.5-0.3-3.7-0.6c-1.2-0.2-2.3-0.5-3.3-1c-1-0.5-1.8-1.1-2.4-1.9
						c-0.6-0.8-1.1-1.8-1.6-2.8c0-0.1-0.1-0.2-0.1-0.3c0.4-0.2,1-0.6,1.8-1.1c0.4-0.2,0.7-0.4,1.1-0.6c0.2-0.1,0.4-0.2,0.6-0.3
						c0.2-0.1,0.5-0.2,0.7-0.3c0.9-0.3,2-0.6,3.2-0.8c2.4-0.3,4.6-0.2,6.2-0.1c0.8,0,1.5,0.1,1.9,0.1c-0.4,0.4-0.8,0.7-1.1,1
						c-0.6,0.6-1,1.2-1.2,1.6c-0.2,0.4-0.3,0.7-0.2,0.8c0.1,0.1,0.4,0,0.8-0.2c0.4-0.2,0.9-0.6,1.5-1c1.3-0.9,3.1-2,5.2-2.7
						c0.3-0.1,0.5-0.2,0.8-0.3c0.3-0.1,0.5-0.2,0.8-0.2c0.5-0.2,1-0.3,1.5-0.4c1-0.2,1.9-0.4,2.6-0.4c0.8-0.1,1.5-0.2,2-0.3
						C134.9,127.3,134.7,128.1,134.6,129z"/>
				</g>
				<g id="Beard_1_">
					<g>
						<path class="st3" d="M154.4,98.6c-2.6,0.2-3.5,1.9-3.5,1.9c2.8-2.2,9.3,1.7,2,5.6c-15.8,8.5-19.6-6.1-30.8-3.2
							c-4.8,1.3-5.3,4.5-5.5,6.6c-0.6,5,5.6,10.3,17.4,10c11.8-0.3,20.1-7,20.1-7C164.3,105.5,158.1,98.3,154.4,98.6z"/>
					</g>
					<g>
						<path class="st3" d="M87.1,94c-2-3.9,2.3-5.9,5.2-5c0,0-4.8-4.3-8.9-0.7c-6.5,5.9,2.7,19.5,13,24.2c10.2,4.7,18,3.2,20.7-0.9
							c1.1-1.7,1.9-4.1-1.2-7.7C109.5,96.6,92.2,103.6,87.1,94z"/>
					</g>
					<path class="st10" d="M107.1,101.9c-2.4-0.3-4.3,0-4.3,0c0.4,0.5,0.9,0.9,1.3,1.2c-2.8,0.1-6.1,0.2-7.5-0.7c0,0,3.1,2,5,2.7
						c0,0-8.8-0.5-11.8-3.3c0,0,7.7,7.2,15.3,8.7c7.6,1.5,8.6-2.1,8.3-5.2C113.5,105.3,112.6,101.7,107.1,101.9z"/>
					<path class="st10" d="M131,110.2c1.9,0.2,6.5-0.8,6.5-0.8c-1.6,0.2-4.3-1.1-7.4-1.7c0.5-0.1,1-0.8,1.5-1.1c0,0-1.6-0.8-3.8-1.5
						c-4.8-2.2-6.7,0.1-6.7,0.1c-1,1.4-2.5,6.1,4.7,7.9c7.2,1.7,17.6-1.5,17.6-1.5C139.8,112.8,131,110.2,131,110.2z"/>
				</g>
			</g>
			<path class="st3" d="M154.6,76.1c1.9,1.1,2.1,2.3,0.2,3.2c0,0,3.7,1.4,4.3,3.2c0.6,1.9-3.8,2-2.6,2.3c5.1,1.4,2.9,3.5,3.1,4.5
				c0.2,0.9,2,3.1,2.2,5.7c0,0,0.1-14.8,0.7-16.5c0,0-8.3-6-23.6-8.6C139,70,151.4,74.2,154.6,76.1z"/>
		</g>
	</g>
	<g>
		<path class="st4" d="M209.6,208.4C210.8,216.9,209.5,207.9,209.6,208.4L209.6,208.4z"/>
		<path class="st4" d="M209.6,208.4c-2.4-18.3-7.8-36.1-20.4-50.1c-6.4-7-14.1-12.6-22.7-16.7c-1-0.5-1.2-0.6-2,0.2
			c-0.3,0.4-0.7,0.7-1.1,1c-1.3,1.2-2.8,2.2-4.3,3.1c-3.7,2.2-7.8,3.8-12.2,4c-3.3,0.2-6.9-0.2-10-1.3c-0.9-0.2-1.5-0.6-2.3,0
			c-0.5,0.4-1,0.8-1.5,1.2c-1.7,1.3-3.5,2.4-5.3,3.5c-3.1,1.9-6.4,3.5-9.6,5.3c-3.3,1.5-6.7,3.1-10.3,3.7c-0.9,0.2-1.9,0.3-2.8,0.4
			c0.1,1.2,0.1,2.5,0.1,3.7c0,2.1,0,4.3,0,6.4c0,4.6,0,9.1-0.1,13.7c-0.1,9.9-0.5,19.8-1.3,29.7c-0.7,8.5-1.5,17.3-3.5,25.6
			c-0.5,2-1.1,4-1.8,6c-0.6,1.7-0.1,4.1,0.3,5.8c0.4,2,1.1,4,2.1,5.8c0.1,0.2,1.7,2.6,1.6,2.7c-0.4,0.4-3-3.9-3.2-4.4
			c-1-2.1-1.7-4.4-2-6.8c-0.1-0.8-0.3-1.7-0.2-2.5c0.2-1.1,0.7-2.3,1-3.4c2.5-9.5,3.2-19.5,3.9-29.3c0.7-10,1.1-19.9,1.2-29.9
			c0.3-0.6,0-2.2,0.1-2.9c0-1.1,0-2.2,0.1-3.3c0-2.7,0.1-5.4,0.1-8.1c0-3.4,0.4-7,0-10.4c-0.1-0.5,3.1-0.5,3.6-0.6
			c1.2-0.2,2.6-0.4,3.8-0.8c-1.9,0-4.5-1.8-6-2.9c-3-2.3-5.5-5.6-6.3-9.3c-0.3-1.2-0.5-1-1.7-1.4c-0.4-0.1-1,0.2-1.4,0.3
			c-1.5,0.3-3,0.7-4.5,0.7c-4.7,0-9.1-0.5-13.6-2.2c-15.7-5.8-27.4-19.9-36.1-33.6c-0.2-0.3-2.7,0.7-3.1,0.8c-2.7,0.7-5.4,1.5-8,2.3
			c-2.4,0.8-4.8,1.5-7,2.6c-0.9,0.4-1.7,0.8-2.6,1.2c-0.4,0.2-2.1,1.3-2.6,1.1c0.6-1.2,3-2.2,4.3-2.8c1.6-0.9,3.3-1.6,5-2.3
			c4.2-1.7,8.8-3.6,13.3-4.2c-0.7-1.1-1.4-2.3-2-3.5c-0.2-0.4-1.8,0.1-2,0.1c-3.3,0.5-6.6,1.2-9.8,2.2c-3.1,0.9-6.2,2-9.2,3.2
			c-2.7,1-5.2,2.5-8,3.3c1.4,3,2,6.4,3.2,9.6c0.8,2,1.6,4.1,2.4,6.1c0.7,1.7,1.4,4,2.5,5.4c3.4,7.3,7.9,14.1,12.9,20.5
			c5.3,6.8,11.4,12.9,18.1,18.3c6.7,5.3,13.9,9.6,21.4,13.8c3-6,6.5-11.8,10.5-17.3c1.4-1.9,2.7-3.8,4.2-5.5
			c0.7-0.9,1.4-1.7,2.1-2.6c0.5-0.6,1.3-1.9,2.2-2.1c0.1,0.1-3,4.3-3.3,4.7c-2,2.6-3.7,5.3-5.5,8.1c-1.8,2.9-3.6,5.8-5.2,8.8
			c-0.8,1.4-1.5,2.8-2.3,4.3c-0.3,0.6-1.4,2.1-1.2,2.7c-0.5,0-1.8,3.5-2.1,4.2c-0.9,2.1-1.8,4.2-2.6,6.4c-1.5,4.1-2.8,8.3-3.9,12.5
			c-2.4,9.3-3.1,19.1-2,28.6c0.5,4.6,1.6,8.5,5.1,11.7c3.2,2.9,7.4,4.7,11.5,6c4.4,1.4,8.9,2.2,13.5,2.7c2.1,0.2,4.1,0.4,6.2,0.5
			c2.2,0.1,4.5,0.5,6.8,0.4c19.5-0.8,38.9-3.3,57.2-10.5c4.1-1.6,8.1-3.6,12.2-5.2c1.3-0.5,0.9-1.2,1.1-2.6c0.2-2.4,0.4-4.8,0.5-7.2
			c0.4-9.4-0.6-18.7-2.8-27.8c-1.2-4.9-2.8-9.7-4.6-14.5c-0.9-2.4-2-4.8-3.1-7.1c-0.2-0.4-2.2-4.8-2.2-4.8c0.8-0.3,3.5,4.9,3.8,5.5
			c1.2,2.2,2.3,4.5,3.4,6.8c2.4,5.4,4.1,11,5.4,16.7c2.2,9.9,2.7,20.4,1,30.5c1.1-0.3,2.4,0.3,3.4,0.6c1.2,0.3,2.5,0.6,3.7,0.9
			c2.8,0.7,5.6,1.1,8.5,1.5c0.7,0.1,13.4,1.1,13.4,1.2c0,0.7-11.2,0.2-11.9,0.2c-0.7-0.1-6.3-1-6.5-0.7l0-0.1
			c-0.8-0.1-1.6-0.2-2.4-0.4c-0.4-0.1-0.7-0.1-1.1-0.2v0c-0.1,0-0.2,0-0.2,0c-0.3-0.1-0.5-0.1-0.8-0.2c-0.5-0.1-1.1-0.2-1.6-0.4
			c-0.2,0-0.4-0.1-0.6-0.1c-0.2,0-0.4-0.1-0.6-0.2c-0.2-0.1-0.5-0.1-0.7-0.2c-0.5-0.1-1.1-0.3-1.6-0.5c-0.5-0.2-0.9-0.4-1.3-0.6
			c-0.1,0.4-0.2,0.9-0.2,1.4c-0.1,0.7-0.3,1.4-0.4,2c0,0.2-0.1,0.4-0.2,0.5h0.5c-0.9,0-0.7,0.6-1,1.4c0.8-0.5,2.6,0.5,3.5,0.7
			c1.6,0.5,3.3,1.1,4.9,1.5c2.8,0.8,5.7,1.5,8.5,2.1c3.3,0.6,6.6,1.1,9.9,1.3c1.4,0.1,2.9,0.1,4.3,0.1c1.5,0,3.1-0.4,4.6-0.2
			c-0.3-1.6,0.2-3.5,0.4-5.1c0.2-1.9,0.3-3.7,0.4-5.6c0.2-3.2,0.3-6.5,0.4-9.8C211.1,225.7,210.8,217,209.6,208.4z"/>
	</g>
	<g>
		<g>
			<g>
				<path class="st5" d="M136.9,259.7c-0.1,0-0.3,0.1-0.4,0.1C136.5,259.8,136.6,259.7,136.9,259.7z"/>
				<path class="st5" d="M136.9,259.7c0.6-0.1,1.3-0.2,1.9-0.4C137.9,259.5,137.3,259.6,136.9,259.7z"/>
				<path class="st5" d="M174.6,216.9c-3.2-10.9-5.3-22.9-12.7-33.3c0,0,10.8,42.6-5.2,64.3c-4.1,5.5-9.8,9.6-17.9,11.4
					c6.6-1.3,25.8-5.5,34-11.4c0.4-0.3,0.7-0.5,1.1-0.8C173.9,247.1,177.8,227.9,174.6,216.9z"/>
				<path class="st5" d="M17.3,136.6c1.3,5.5,7,14.4,7,14.4c15.7,25.1,45.9,38.6,45.9,38.6c0.5-3.7,17.7-27.3,17.7-27.3
					C56.7,196.2,17.3,136.6,17.3,136.6z"/>
				<path class="st5" d="M165.2,141.1c-13.3,12.1-26,7.6-27,7.3c0,0.2,0,0.4-0.1,0.7c-0.3,3.1-16.2,11-16.2,11s-3.7,1.2,3.1,0.9
					c6.8-0.2,16.4-8.4,16.4-8.4c9.6,1.7,22.6-5.4,22.6-5.4c8.2-1.4,11.6,1.3,15.7,2.6C174.6,143.7,165.2,141.1,165.2,141.1z"/>
				<path class="st5" d="M138.1,148.3C138.1,148.3,138.2,148.3,138.1,148.3C138.4,146.4,138.1,148.3,138.1,148.3z"/>
				<path class="st5" d="M89.8,146.8c0,0,0.5,10.3,5.4,13.2l1.4,1.6c0,0-3.4,6.2-2,10.8c1.4,4.6,1.6,12.5-1.2,17.9
					c7.9-3.1,6.8-30.3,13.4-30.8l-14-13.8L89.8,146.8z"/>
				<path class="st5" d="M118.1,163.3l-1.9-2.1l-5.2-1.5c0,0-2.2,1.3-3.1,4.1c0,0,1.4,0.9,4.5,1.7c3.1,0.8,0.5,5.4,1,8
					c0.5,2.7,2.2,17,11.2,15.3C124.6,188.9,117.6,172.1,118.1,163.3z"/>
			</g>
			<path class="st5" d="M42.2,111.3c-3.6-6.5-4-5.6-4-5.6s-11,2.2-11.8,3.4c0,0,21.5,23.6,31.5,23.5C58,132.6,45.8,117.8,42.2,111.3
				z"/>
		</g>
		<path class="st5" d="M182.8,248c-2.2-43.2-16.1-56.5-16.1-56.5c11.3,26.4,8.2,51.5,7.4,56.5c-0.1,0.6-0.2,0.9-0.2,0.9
			s-0.3,0,0.9,0.8c1.2,0.8,8.1,2.1,8.1,2.1C182.9,250.5,182.9,249.2,182.8,248z"/>
	</g>
	<g id="Button_1_">
		<g>
			<path class="st3" d="M114.6,168.7c-0.1,0-0.2,0.3-0.5,0.6c-0.2,0.3-0.7,0.8-1.4,1c-0.7,0.3-1.6,0.4-2.5,0.2
				c-0.5-0.1-0.9-0.3-1.2-0.6c-0.3-0.3-0.5-0.6-0.5-1c0-0.3,0.1-0.7,0.5-1c0.3-0.3,0.7-0.6,1.2-0.7c0.9-0.3,1.8-0.3,2.5-0.1
				c0.7,0.2,1.2,0.6,1.4,0.9C114.3,168.5,114.4,168.7,114.6,168.7c0.1,0,0.3-0.3,0.2-0.9c-0.1-0.6-0.6-1.4-1.6-1.9
				c-0.9-0.5-2.2-0.8-3.6-0.4c-0.7,0.2-1.4,0.5-2,1.1c-0.6,0.6-1.2,1.5-1.1,2.5c0,1,0.7,1.9,1.3,2.4c0.7,0.5,1.4,0.8,2.1,0.9
				c1.4,0.2,2.7-0.1,3.6-0.7c0.9-0.6,1.4-1.4,1.4-2C114.9,169,114.7,168.7,114.6,168.7z"/>
		</g>
		<g>
			<path class="st3" d="M114.5,196.6c-0.1,0-0.2,0.3-0.5,0.6c-0.2,0.3-0.7,0.8-1.4,1c-0.7,0.3-1.6,0.4-2.5,0.2
				c-0.5-0.1-0.9-0.3-1.2-0.6c-0.3-0.3-0.5-0.6-0.5-1c0-0.3,0.1-0.7,0.5-1c0.3-0.3,0.7-0.6,1.2-0.7c0.9-0.3,1.8-0.3,2.5-0.1
				c0.7,0.2,1.2,0.6,1.4,0.9C114.2,196.3,114.4,196.6,114.5,196.6c0.1,0,0.3-0.3,0.2-0.9c-0.1-0.6-0.6-1.4-1.6-1.9
				c-0.9-0.5-2.2-0.7-3.6-0.4c-0.7,0.2-1.4,0.5-2,1.1c-0.6,0.6-1.2,1.5-1.1,2.5c0,1,0.7,1.9,1.3,2.4c0.7,0.5,1.4,0.8,2.1,0.9
				c1.4,0.2,2.7-0.1,3.6-0.7c0.9-0.6,1.3-1.4,1.4-2C114.8,196.9,114.6,196.6,114.5,196.6z"/>
		</g>
		<g>
			<path class="st3" d="M113.3,224c-0.1,0-0.2,0.3-0.5,0.6c-0.2,0.3-0.7,0.8-1.4,1c-0.7,0.3-1.6,0.4-2.5,0.2
				c-0.5-0.1-0.9-0.3-1.2-0.6c-0.3-0.3-0.5-0.6-0.5-1c0-0.3,0.1-0.7,0.5-1c0.3-0.3,0.7-0.6,1.2-0.7c0.9-0.3,1.8-0.3,2.5-0.1
				c0.7,0.2,1.2,0.6,1.4,0.9C113,223.7,113.1,224,113.3,224c0.1,0,0.3-0.3,0.2-0.9c-0.1-0.6-0.6-1.4-1.6-1.9
				c-0.9-0.5-2.2-0.8-3.6-0.4c-0.7,0.2-1.4,0.5-2,1.1c-0.6,0.6-1.2,1.5-1.1,2.5c0,1,0.7,1.9,1.3,2.4c0.7,0.5,1.4,0.8,2.1,0.9
				c1.4,0.2,2.7-0.2,3.6-0.7c0.9-0.6,1.3-1.4,1.4-2C113.6,224.3,113.4,224,113.3,224z"/>
		</g>
		<path class="st3" d="M108.7,250.8c-0.1,0-0.2,0.3-0.5,0.6c-0.2,0.3-0.7,0.8-1.4,1c-0.7,0.3-1.6,0.4-2.5,0.2
			c-0.5-0.1-0.9-0.3-1.2-0.6c-0.3-0.3-0.5-0.6-0.5-1c0-0.3,0.1-0.7,0.5-1c0.3-0.3,0.7-0.6,1.2-0.7c0.9-0.3,1.8-0.3,2.5-0.1
			c0.7,0.2,1.2,0.6,1.4,0.9C108.4,250.5,108.5,250.8,108.7,250.8c0.1,0,0.3-0.3,0.2-0.9c-0.1-0.6-0.6-1.4-1.6-1.9c0,0,0,0,0,0
			c-0.9-0.5-2.2-0.8-3.6-0.4c-0.4,0.1-0.8,0.2-1.1,0.4c-0.3,0.2-0.6,0.4-0.9,0.6c-0.6,0.6-1.2,1.5-1.1,2.5c0,1,0.7,1.9,1.3,2.4
			c0.7,0.5,1.4,0.8,2.1,0.9c1.4,0.2,2.7-0.2,3.6-0.7c0.9-0.6,1.3-1.4,1.4-2C109,251,108.8,250.7,108.7,250.8z"/>
	</g>
	<g>
		<g>
			<path class="st3" d="M148.2,180.7c-0.9-0.1-1.9-0.1-3.1-0.2c-1.2,0-2.5,0-3.8,0c-1.4,0-2.8,0.1-4.2,0.2c-0.7,0.1-1.5,0.1-2.2,0.1
				c-0.7,0.1-1.4,0.2-2.2,0.2c-2.9,0.3-5.6,0.7-7.7,1.1c-0.3,0.1-0.6,0.1-0.9,0.2c-0.2,0-0.4,0.1-0.5,0.1c-0.3,0.1-0.5,0.1-0.8,0.2
				c-0.3,0-0.3,0.3-0.4,0.5c0,0.2-0.1,0.5-0.1,0.7c0,0.1,0,0.2-0.1,0.4c0,0.1,0,0.2,0,0.3c-0.1,0.8-0.1,1.3-0.1,1.6
				c0.1,0.7,0.3,0.8,0.6,0.8c0.3,0.1,0.5,0.2,0.8-0.4c0.2-0.3,0.3-0.8,0.5-1.5c0-0.2,0.1-0.4,0.2-0.6c0-0.1,0-0.1,0-0.1l0,0
				c0,0,0,0,0,0l0,0c0,0,0,0,0,0c0.1,0,0.1,0,0.2,0c0.3-0.1,0.6-0.1,1-0.2c2.1-0.4,4.7-1,7.5-1.4c0.7-0.1,1.4-0.2,2.1-0.3
				c0.7-0.1,1.4-0.2,2.1-0.2c1.4-0.2,2.8-0.3,4.2-0.4c1.3-0.1,2.6-0.2,3.8-0.3c1.2-0.1,2.2-0.1,3.1-0.2c1.8-0.1,2.8-0.2,2.8-0.4
				C151,181,149.9,180.8,148.2,180.7z"/>
		</g>
		<g>
			<path class="st3" d="M143.2,186.1c-0.6,0-1.4-0.1-2.3-0.1c-0.9,0-1.8,0.1-2.8,0.1c-4,0.2-8.7,0.7-11.8,1.2
				c-3.9,0.6-3.8,1.1-3.8,1.5c0.1,0.4,0,0.7,4,0c3.1-0.5,7.7-1.3,11.6-1.7c1-0.1,1.9-0.2,2.7-0.3c0.8-0.1,1.6-0.1,2.2-0.2
				c1.3-0.1,2.1-0.2,2.1-0.3C145.3,186.2,144.5,186.2,143.2,186.1z"/>
		</g>
	</g>
	<path class="st3" d="M212.5,208.5C212.5,208.5,212.5,208.5,212.5,208.5c0-0.2,0-0.3-0.1-0.4c-0.2-1.4-0.4-2.8-0.6-4.1l-0.1-0.5
		c-0.3-2-0.6-4-0.9-6.1c-0.7-3.9-1.6-7.5-2.6-10.9c-2.2-7.2-5.2-13.9-9.1-19.8c-3.8-5.8-8.3-11-13.4-15.4c-6.4-5.4-12.6-9.1-18.5-11
		c3-3.7,4.7-8.3,4.9-13.1c0.2-5.7-1.5-11.2-3.4-16c0,0,0.1,0,0.1,0c3.2,0,5.9-2.7,7.5-7.5c0.4-1.1,0.8-2.3,1.3-3.5
		c1.3-3.2,2.6-6.5,2.3-9.9c-0.3-3.7-2.8-6.8-6.5-7.8c-0.9-0.3-1.9-0.4-2.8-0.4c-2.6,0-5,1-6.8,2.9c-0.1-8.7,0.6-17.6,2.2-26.6
		c3,2,6.5,2.8,9,3.2c2,0.3,3.8,0.5,5.6,0.5c2.4,0,4.6-0.3,6.5-0.9c6.5-2,12.3-7.2,15.5-13.8c3.1-6.5,3.2-13.8,0-19.5
		c-3.2-5.8-9.6-9-17.2-8.9c-2.8,0.1-5.5,0.5-8,1.4c-0.2-10.5-10.5-18.4-20.9-20c-1.7-0.3-3.5-0.4-5.3-0.4c-9.8,0-22.6,4.3-27.3,16.4
		c-2.8-0.9-5.9-1.4-9.1-1.4c-4.4,0-8.9,0.9-13,2.5c-6.7,2.7-12.1,7.8-14.7,14.1c-2.7,6.6-1.7,13.8,2.6,18.7
		c3.3,3.8,8.5,5.9,14.2,5.9c0.9,0,1.8-0.1,2.7-0.2c-0.5,1.4-1,2.8-1.4,4.2c-0.6,1.9-1.3,3.9-2,5.9l-1.1,2.7
		c-0.1,0.2-0.2,0.5-0.2,0.8c-0.1,0.4-0.3,1.2-0.6,1.3c-1.6,1.1-3,2.6-4,4.3c-1.9,3.3-2.3,7.5-1.2,11.7c0,0.1,0.1,0.4,0.2,0.6
		c0.1,0.2,0.2,0.4,0.3,0.7c-0.6,0.3-1.1,0.6-1.6,1c-1.6,1.1-3.2,2.4-4.7,3.8c-12.2,11.9-14.6,30.9-5.8,44.3c2.2,3.3,5,6.1,8.1,8
		c-1.4,0.1-2.7,0.1-3.9,0c-3.3-0.2-6.6-1-10-2.4c-5.4-2.1-10.9-5.6-16.2-10.3c-4.4-3.9-8.7-8.6-13-14.3c-2-2.6-3.9-5.3-5.6-8
		c-1-1.6-1.9-3-2.7-4.3c-0.3-0.5-0.6-1.1-0.9-1.6c-0.1-0.3-0.5-0.7-1.1-0.7l-2.7,0.3c-4.7,0.8-9.5,2.1-14,3.8
		c-3.2,1.2-5.6,2.2-7.8,3.3c-0.8,0.4-1.6,0.8-2.4,1.3c-0.2,0.1-0.5,0.3-0.8,0.5c-0.1,0-0.2,0.1-0.2,0.2l-2.4,1.3
		c-0.4,0.3-0.7,0.7-0.8,1.2c-0.1,0.8,0.1,1.6,0.2,2.3c0,0.2,0.1,0.3,0.1,0.5c0.4,2.3,1,4.5,1.6,6.4c1.1,3.8,2.6,7.8,4.4,11.8
		c3.2,7.1,7.1,13.8,11.7,20c11.3,15.2,26.2,27.1,42.1,33.5c-7.8,15.9-11.4,31.5-10.8,46.4c0.2,4.1,0.4,8.1,1.6,11.7l0.1,0.2
		c0,0.1,0.1,0.3,0.1,0.4c1.2,3.2,3.6,6.1,6.9,8.4c6.8,4.7,15.2,6.1,21.8,6.8c3.2,0.4,6,0.5,8.6,0.5h0.2c1.6,0,3.3,0,5.1-0.2
		c1.1-0.1,2.2,0,3.4,0.2c0.7,0.1,1.4,0.2,2.1,0.2c8,0.5,16.4,0,24.9-1.3c8.2-1.3,15.8-3.2,22.7-5.7c3.4-1.2,6.8-2.6,10.4-4.4
		c2-1,3.7-1.8,5.2-2.7c0.3-0.2,0.6-0.4,0.9-0.5c0.4-0.2,0.8-0.5,1.2-0.7c0.1,0.7,0.3,1.3,1.2,1.8c1.3,0.7,2.6,1.1,4,1.6
		c-3.5,2.5-6.7,6-8.5,9.6c-1.4,2.7-1.7,5.3-0.7,7.6c0.6,1.4,1.6,2.5,2.8,3.2c-0.2,0.1-0.3,0.2-0.5,0.3c-0.4,0.2-0.7,0.5-0.8,0.9
		c-0.3,0.8-0.1,1.9,0.8,3.5c1.4,2.5,4,4.5,7,5.2c0.5,0.1,1,0.1,1.3,0.1c0.2,0,0.4,0,0.5,0c0.7,0,1.3,0,1.8,0.3
		c1.3,0.9,3,1.4,4.2,1.6c0.7,0.1,1.2,0.2,1.8,0.2c1,0,1.9-0.2,2.6-0.6c0.4-0.2,1-0.2,1.7-0.1c0.5,0.1,1,0.2,1.6,0.1
		c6.1-0.3,10.7-6.1,12.1-11.7c1.3-5.2,0.9-11.3-1.1-16.3c1.9-0.1,3.6-0.3,5.3-0.8c1.4-0.4,1.6-2.6,1.8-4.2c0-0.3,0-0.5,0.1-0.6
		c0.7-4.2,1.2-8.6,1.6-14C213.8,226.6,213.6,217.3,212.5,208.5z M167.3,85.7c0.8-0.4,1.7-0.6,2.6-0.6c1.4,0,2.9,0.4,4.1,1.2
		c3.6,2.2,2.5,6.2,0.7,11.3c-0.4,1-0.7,1.9-1,2.8c-0.1,0.4-0.2,0.9-0.4,1.3c-0.6,2.1-1.1,4.3-2.7,5.7c-0.8,0.7-1.8,1.1-2.7,1.1
		l-0.2,0c-0.4,0-0.4,0-0.8-1c-0.1-0.2-0.1-0.5-0.2-0.7c-1.8-5.1-2.8-11.1-3-17.7C163.9,88.1,166,86.3,167.3,85.7z M108.1,63.8
		c0.1-0.1,0.6-0.1,0.9-0.2c0.2,0,0.5,0,0.7-0.1c1.5-0.2,3-0.5,4.5-0.7c5.8-0.8,11-1,16-0.7c5.5,0.3,10.9,1.1,16.1,2.3
		c2.4,0.5,4.5,1.2,6.4,1.9l0.2,0.1c2.5,0.9,3.2,1.1,3.6,1.1c0.5,0,0.9-0.3,1-0.6c0.1-0.2,0.1-0.6,0-0.8c-0.2-0.4-0.4-0.8-6.2-2.9
		l-0.1,0c-3.3-1.1-6.4-2-9.6-2.7c-5.3-1.1-10.9-1.6-17.1-1.6c-5,0-10.3,0.1-15.2,1.4c0.4-1.6,0.7-3.3,0.7-4.9c0.1,0,0.3-0.1,0.4-0.1
		c0.2,0,0.3-0.1,0.4-0.1c1.3-0.4,2.5-1,3.6-1.6c2.4-1.2,4.6-2.1,6.8-2.9c0.1,0,0.6-0.2,1.3-0.4c3.6-1.1,3.6-1.1,3.8-1.5
		c0.1-0.1,0.1-0.3,0.1-0.4c0-0.1,0-1.1-1.4-1.1c-2,0-9.1,2.3-9.6,2.5c-0.5,0.2-1,0.4-1.4,0.6c-3,1.2-5.8,2.3-9.1,2.4l-0.3,0
		c-6.8,0-12.4-3.7-14.3-9.4c-2.4-7,1.4-13.8,5.8-17.8c5.5-5.1,12.3-6.7,17.1-7.1c0.8-0.1,1.7-0.1,2.7-0.1c1.8,0,3.5,0.1,5.4,0.3
		c0.7,0.1,1.3,0.1,2,0.1c-0.7,2.4-1,4.9-1,7.3c0.1,4,0.4,4.9,1.4,4.9c0,0,0,0,0,0c1.1,0,1.1-1.1,1.2-4.1l0-0.1
		c0.1-1.8,0.4-3.6,0.8-5.4c0.9-3.4,2.5-6.6,4.7-9.1c5.7-6.6,14.4-8,19.1-8.3c0.6,0,1.2-0.1,1.8-0.1c7.1,0,13.7,2.4,18,6.7
		c5.2,5.2,6.4,12.4,3.1,18.6c-0.2,0.4-0.5,0.7-0.8,1.1c-0.4,0.6-0.9,1.1-1.2,1.8c-0.2,0.5,0,1,0.5,1.2c0.3,0.1,0.7,0.1,0.9-0.1
		c0.1,0,0.2-0.1,0.3-0.2c0.5-0.3,0.7-0.4,0.8-0.5c0.6-0.6,1.2-1.3,1.7-2.1c1.1-1.7,1.9-3.6,2.4-5.7c0.1-0.3,0.1-0.7,0.1-1.1
		c0-0.3,0-0.6,0.1-0.8c0.3-0.1,0.9-0.1,1.2-0.1c0.2,0,0.3,0,0.4,0c2.1-0.3,4-0.5,5.8-0.5l0.2,0c4.1,0,7.5,0.8,10.1,2.5
		c2.6,1.7,4.6,4.5,5.6,7.8c1.8,6.3-0.4,13.6-5.6,19.2c-2.4,2.6-5.3,4.6-8.3,5.7c-2.1,0.8-4.4,1.2-7.1,1.2c-1.2,0-2.5-0.1-4-0.2
		c-2.1-0.2-3.7-0.5-5.2-1c-1-0.3-1.9-0.7-2.7-1.1c-0.3-0.2-0.7-0.4-1-0.6c0,0,0,0-0.1,0c0,0,0,0,0,0l0-0.2c0.4-2.2,0.9-4.4,1.4-6.6
		c1.3-5.8,1.1-6,0.8-6.4c-0.2-0.2-0.5-0.4-0.8-0.4c-1,0.1-1.5,1.2-2.2,3.7c0,0.1-0.1,0.2-0.1,0.3c-0.4,1.2-0.7,2.4-1.1,3.7
		c-0.8,2.9-1.5,5.9-2.1,9.2c-1,5.5-1.8,11.4-1.3,16.9c-1-0.7-2.2-1.3-3.2-1.8l-0.6-0.3c-2.1-1.1-4.5-2.1-7.2-3.2
		c-5.5-2.1-10.6-3.5-15.5-4.3c-3.6-0.5-7.2-0.8-10.9-0.8c-1.6,0-3.3,0.1-4.9,0.2c-4.9,0.3-9,1.1-12.4,2.5
		C107.2,66.6,107.7,65.1,108.1,63.8z M85.9,132c-2.3-5.2-3.3-10.7-2.9-16.3c0.4-4.9,2.1-9.9,4.8-14.5c1.6-2.6,3.2-4.8,5-6.5
		c0.8-0.8,1.6-1.6,2.5-2.3c0.9-0.8,1.8-1.6,2.6-2.5c0.3,0,0.5-0.2,0.7-0.4c0.4-0.5,0.2-1.6,0.1-2.1c-0.2-1.3-0.3-2.6-0.3-3.9
		c0-2.8,0.8-5.3,2.2-7.3c3.6-4.7,10.6-6,16.3-6.5c2.2-0.2,4.5-0.3,6.8-0.3c12.2,0,24.6,3,36.1,8.8c0.6,0.3,1.2,0.6,1.8,1
		c0,0.1-0.1,0.3-0.1,0.3c0,0.2-0.1,0.3-0.1,0.4c-0.2,1.6-0.4,3.4-0.5,5.1c-0.2,4-0.1,8,0.3,11.8c0.4,4.2,1.1,7.6,2.1,10.7
		c0.5,1.4,1,2.9,1.6,4.3c0.7,1.9,1.5,3.9,2.1,5.9c0.1,0.8,0.3,1.6,0.5,2.3c0.2,1,0.5,2,0.6,2.9c0.2,1.8,0.3,3.5,0.1,5.1
		c-0.3,2.8-1.2,5.6-2.6,8c-3.1,5.1-8.9,9.3-15.1,10.9c-1.7,0.5-3.5,0.7-5.4,0.7c-3.8,0-7.5-0.9-11.5-1.8c-0.4-0.1-0.7-0.2-1.1-0.3
		c0.2-0.2,0.4-0.4,0.6-0.5c0.9-0.9,1.8-1.8,2.8-2.6c0.6-0.5,1.2-0.9,1.7-1.2c0.1-0.1,0.4-0.2,0.6-0.3c0.9-0.4,1.7-0.7,2-1.4
		c0.1-0.3,0.1-0.7-0.1-0.9c-0.3-0.5-0.9-0.5-1.1-0.5c-0.4,0-0.9,0.1-1.1,0.1c0,0-0.1,0-0.1,0c-1.7,0.3-3.2,1.3-4.3,2
		c-1.2,0.9-2.3,1.8-3.4,2.8c-1.1,0.9-2.2,1.9-3.3,2.7c-2.8,2-6.4,3.2-9.5,3.2c-2.2,0-4.2-0.6-5.8-1.6c-1.6-1.1-2.7-2.6-3.9-4.3
		l-0.5-0.7c-0.6-0.9-1.4-1.8-2.2-2.7l-0.1-0.1c-1-1.1-1.9-1.8-2.6-1.9c-0.3-0.1-0.8-0.3-1.2-0.3c-0.4,0-0.8,0.2-1,0.6
		c-0.3,0.7,0.2,1.2,0.4,1.4c0.3,0.3,0.6,0.5,0.8,0.8c0.3,0.3,0.6,0.6,0.9,0.9c0.9,1,1.5,2.2,2.3,3.4c0.3,0.6,0.7,1.1,1,1.7
		c-3.3-0.3-6.3-1.1-8.9-2.4c-0.1,0-0.1-0.1-0.2-0.1C91.6,140.8,88.2,137,85.9,132z M132.8,148.3c-0.9,0.5-1.9,1-2.8,1.6
		c-5.4,3.1-11,6.2-16.9,8.3c-0.3,0.1-0.7,0.2-1,0.3c-0.1,0-0.3,0.1-0.4,0.1c-0.3-0.1-0.5-0.3-0.8-0.4c-0.2-0.1-0.5-0.2-0.7-0.4
		c-1.7-1-2.9-1.8-4-2.7c-2-1.7-3.8-3.8-5.5-6.8c1.1,0.2,2.1,0.3,3.1,0.4c1,0,2.1,0,3-0.1c0.2,0,0.3,0,0.4-0.1c0,0,0.1,0,0.1,0
		c0,0,0,0,0.1,0.1c0,0,0,0,0.1,0.1c0,0,0,0,0,0c1.8,1.5,3.9,3,6.9,3.6c2.6,0.5,5.3,0.4,7.8-0.3c2.5-0.7,4.9-1.9,7.3-3.9l0.2-0.2
		c0.2-0.2,0.5-0.4,0.6-0.4c0.1,0,0.2,0,0.6,0.2C131.6,147.9,132.2,148.1,132.8,148.3z M100.6,262.1c-0.4,0-0.9-0.1-1.3-0.1
		c-2.3-0.1-4.5-0.3-6.6-0.5c-3.9-0.4-7.4-1-10.8-1.7c-5.6-1.3-13.5-3.6-17.5-9.4c-0.6-0.8-1-1.7-1.4-2.8c-0.9-2.4-1.3-5.1-1.5-7.7
		c-0.3-3.9-0.3-8,0-12.5c0.5-7,2.1-14.4,4.5-21.9c2.1-6.4,4.7-12.7,7.9-18.6c4-7.8,8.1-14.6,12.4-20l0.2-0.2
		c3.4-4.6,3.4-4.7,3.3-5.2c0-0.2-0.2-0.4-0.3-0.5c0,0,0,0,0,0c0,0-0.1-0.1-0.1-0.1l0,0c-0.2-0.1-0.3-0.1-0.5-0.1
		c-1.7,0-9.7,11.2-9.8,11.3c-3.6,5.1-6.8,10.4-9.6,15.8c-2.9-1.6-6.1-3.5-9.4-5.5c-1.9-1.2-3.8-2.5-5.6-3.8c-1.3-0.9-2.7-1.9-4-2.8
		c-6-4.6-11.6-9.9-16.7-15.9c-9.7-11.4-17.3-25.1-22-39.5c0,0,0-0.1,0-0.1c-0.3-0.7-0.5-1.5-0.8-2.4c-0.1-0.6-0.3-1.1-0.5-1.7
		c1.3-0.4,2.5-1,3.7-1.6c0.9-0.4,1.8-0.8,2.7-1.2c3-1.2,6-2.3,9.2-3.2c3.2-1,6.4-1.8,9.7-2.3c0.1,0,0.3-0.1,0.5-0.1
		c0.4-0.1,1.2-0.3,1.6-0.3c0,0.1,0.1,0.2,0.1,0.3c0.1,0.1,0.1,0.3,0.2,0.4c0.2,0.4,0.5,0.8,0.7,1.2c-3.6,0.7-7.1,2.1-10.5,3.4
		l-0.8,0.3c-0.1,0-10.2,4.2-10.7,5.9c-0.1,0.3,0,0.7,0.1,0.9c0.2,0.3,0.6,0.5,0.9,0.4c0.7-0.1,1.5-0.5,2.1-0.8
		c0.3-0.1,0.5-0.3,0.8-0.4l0.8-0.4c1.2-0.5,2.4-1.1,3.6-1.6c3.4-1.3,7.1-2.5,10.8-3.5c0.4-0.1,0.9-0.2,1.3-0.3
		c1.1-0.2,2.2-0.5,3.2-1c0.1,0,0.1,0,0.1-0.1c0.2,0.3,0.4,0.6,0.6,0.9c0.2,0.3,0.4,0.6,0.6,0.9c2.3,3.5,4.6,6.7,7,9.7
		c11.9,14.8,25,23.1,37.6,24.2c3.1,0.3,6,0.1,8.5-0.5c0.2,0,0.4-0.1,0.5-0.1c0.8-0.2,1.2-0.3,1.9-0.1c0.2,0.3,0.5,1.3,0.6,1.8
		c0.1,0.5,0.2,0.9,0.4,1.2c1.4,3.1,3.7,5.9,6.5,7.9c0.7,0.5,1.5,1,2.3,1.5c-0.2,0-0.4,0-0.7,0c-2.1,0.1-3.9,0.2-4.1,1.4
		c-0.1,0.4-0.1,0.9,0,1.3c0,0.1,0,0.2,0,0.3c0,0.6,0,1.1,0,1.7v0.2c0,1.7,0,3.3,0,5c0,7.5-0.2,15.4-0.4,24.1
		c-0.3,9.1-0.7,17.3-1.3,25.2c-0.6,7.6-1.3,15.6-3,23.5c-0.4,1.9-0.9,3.6-1.4,5.2l-0.1,0.3c-0.5,1.5,0,3.6,0.4,5.1
		c0.1,0.2,0.1,0.4,0.2,0.6c0.6,2.5,1.6,4.8,3.2,7.2c0.1,0.1,0.1,0.2,0.2,0.4c0.2,0.3,0.4,0.6,0.6,0.9
		C100.7,262.1,100.7,262.1,100.6,262.1z M201.7,274c-1.4,3.5-4.5,7.1-8.4,7.9c1.1-1.8,1.3-3.9,1.3-5.2l0-0.1c0-1,0-1.7-0.5-2.1
		c-0.2-0.2-0.5-0.3-0.8-0.3c-1.2,0-1.4,1.5-1.5,2.5l0,0.2c-0.4,2.2-1.4,3.9-2.6,4.6c-0.6,0.3-1.3,0.5-2.1,0.5c-1,0-2-0.2-3-0.5
		c1-0.9,1.8-2.1,2.5-3.6c0-0.1,0.1-0.2,0.2-0.4c0.7-1.5,1.4-3.1,0.9-4.2c-0.2-0.3-0.5-0.5-0.8-0.5c-0.8,0-1.2,0.7-2.2,2.8
		c-0.1,0.2-0.1,0.3-0.2,0.4c-0.7,1.3-1.5,2.5-2.6,3.4c-0.6,0.5-1.3,0.7-2.1,0.7c-1.3,0-2.8-0.6-4.2-1.8c-0.9-0.7-1.5-1.5-1.8-2.3
		c0.5-0.3,1.3-0.6,1.7-0.8c0.4-0.2,0.7-0.3,0.9-0.4c1.3-0.7,2.6-1.6,3.6-2.7c0,0,2.4-2.9,2-4.3c-0.1-0.4-0.5-0.7-0.9-0.8
		c-0.3-0.1-0.7,0-0.9,0.3c0,0.1-0.1,0.1-0.1,0.2c-0.3,0.4-1.7,2.2-1.9,2.5c-0.9,0.8-1.6,1.2-2.5,1.3c-2,0-3.2-0.8-3.8-2.4
		c-0.8-2.2,0.4-4.5,1.6-6.3c1.7-2.5,3.7-4.7,5.6-6.7c0.2-0.3,0.5-0.5,0.7-0.8c0.4-0.5,0.9-1,1.3-1.3c0.2,0,0.5,0.2,0.7,0.2
		c0.4,0.1,0.7,0.3,1,0.3c2.8,0.7,5.7,1.3,8.6,1.8c2.7,0.4,5.1,0.7,7.4,0.8c0.6,0,1.3,0.1,2,0.1c0.2,0,0.4,0,0.6,0c0.2,0,0.4,0,0.6,0
		c0,0.2,0.1,0.4,0.1,0.5c0,0.2,0,0.3,0.1,0.4c0.1,0.7,0.3,1.4,0.4,2.2l0,0.2c0,0,0,0,0,0C203.1,264.9,203.5,269.6,201.7,274z
		 M210,233.9l0,0.7c0,0.5,0,1,0,1.5c0,0,0,0.1,0,0.1c-0.1,3.1-0.2,6.3-0.5,9.5c-0.1,1.3-0.2,2.7-0.3,4.1l-0.1,0.8
		c0,0.4-0.1,0.8-0.2,1.2c-0.1,0.7-0.2,1.4-0.2,2.1c-0.6,0-1.2,0.1-1.8,0.1c-0.6,0.1-1.1,0.1-1.7,0.1l-0.8,0c-1.3,0-2.7,0-4.1-0.1
		c-3.2-0.2-6.5-0.5-9.6-1.3c-2.7-0.5-5.4-1.2-8.5-2.1c-0.9-0.3-1.8-0.6-2.7-0.9c-0.5-0.2-1.1-0.3-1.6-0.5c-0.2-0.1-0.4-0.2-0.7-0.2
		c-0.6-0.2-1.2-0.5-1.9-0.6c0-0.1,0-0.1,0-0.2c0.3-0.9,0.5-1.8,0.6-2.7c1.4,0.6,3.1,0.9,4.6,1.2c0.4,0.1,0.9,0.2,1.3,0.2
		c1.2,0.3,2.6,0.5,4.2,0.7c1,0.2,2.1,0.3,3.1,0.4c0.8,0.1,7.7,0.6,12,0.6c2.7,0,4.3-0.1,4.3-1.4c0-1.1-0.8-1.3-6.1-1.4l-0.4,0
		c-2.7-0.1-5.4-0.4-7.8-0.8c-1.5-0.2-2.9-0.4-4.1-0.6c-1.5-0.3-2.9-0.5-4.3-0.9c-0.8-0.1-1.7-0.4-2.5-0.6c-0.4-0.1-0.7-0.2-1.1-0.3
		c-0.2-0.1-0.5-0.1-0.8-0.2c-0.6-0.2-1.2-0.4-1.8-0.5c1.5-9.8,1-20.6-1.5-31.1c-1.3-5.7-3.3-11.3-5.7-16.6c-1.2-2.6-2.4-5-3.8-7.3
		c-0.1-0.2-0.2-0.4-0.4-0.6c-0.9-1.7-1.9-3.3-3-3.7c-0.3-0.1-0.6-0.1-0.8,0.1c-0.9,0.6-1,0.6,2.8,8.3c0.3,0.6,0.5,0.9,0.5,1.1
		c1.6,3.7,3,7.4,4.2,11.2c2.4,7.8,4,15.6,4.5,23.2c0.3,3.7,0.3,7.6,0.2,11.5c-0.1,1.9-0.2,3.8-0.4,5.9c-0.1,0.6-0.1,1.2-0.2,1.8
		l-0.1,0.8c0,0,0,0.1,0,0.1c-0.1,0-0.2,0.1-0.3,0.1l-0.1,0c-0.2,0.1-0.4,0.1-0.6,0.2l-0.2,0.1c-1.7,0.6-3.4,1.4-5,2.1
		c-1.3,0.6-2.7,1.2-4.1,1.8c-3.8,1.5-7.6,2.8-11.3,4c-7.5,2.3-15.3,4.1-23.1,5.2c-4,0.6-8,1-12.4,1.3c-2,0.2-4.1,0.3-6.2,0.4
		c-0.7,0-1.4,0-2.2,0c-1.4,0-2.8,0-4.1,0.2c-0.1,0-0.1,0-0.2,0c0-0.4-0.3-0.9-1.1-2.1c-1.8-2.6-2.9-6.4-3-10.4c0-0.4,0-0.9,0.2-1.5
		c0.2-0.7,0.4-1.3,0.6-2c0.2-0.6,0.4-1.1,0.5-1.7c0.5-2,1-4,1.4-6.3c0.8-4.1,1.3-8.2,1.7-11.6c1-8.6,1.5-17.3,1.8-25.3
		c0.3-6.3,0.5-12.7,0.5-19c0-3.3,0.1-6.5,0-9.8c0-0.9,0-1.8,0-2.8c0-2,0.1-4.1-0.1-6.2c5.9-0.6,11.4-3.3,16.5-6
		c3.2-1.7,6.4-3.7,9.8-6c0.3-0.2,0.6-0.4,0.9-0.6c0.9-0.6,1.8-1.1,2.5-1.9c0.5,0.1,1.4,0.4,1.9,0.6c0.4,0.2,0.7,0.3,1,0.3
		c7.7,1.7,15.1,0.5,21.5-3.6c1.2-0.8,2.5-1.7,3.7-2.7c0.5-0.4,0.9-0.8,1.4-1.2l0.1-0.1c0.1-0.1,0.1-0.1,0.2-0.2
		c0.1,0.1,0.2,0.1,0.4,0.2c0.2,0.1,0.3,0.1,0.5,0.2c3.7,1.7,7.2,3.7,10.3,5.9c11.9,8.3,21.2,20.5,26.3,34.6
		c2.6,7.1,4.4,14.9,5.6,23.6c1,7.2,1.5,14.8,1.5,23.5C210,231.5,210,232.7,210,233.9z"/>
	<g>
		<g>
			<g>
				<path class="st8" d="M91.1,146.3C91.1,146.3,91.1,146.3,91.1,146.3C90.4,149.3,90.9,147.1,91.1,146.3z"/>
				<path class="st8" d="M91.1,146.3C91.1,146.3,91.1,146.3,91.1,146.3C91.2,146.1,91.2,146,91.1,146.3z"/>
				<polygon class="st8" points="91.1,146.3 91.1,146.3 91.1,146.3 				"/>
				<path class="st8" d="M106.2,151.4c-1.1-0.3-2.2-0.7-3.3-1.2c-2.4-1.1-4.7-2.4-6.8-4.1c-0.4-0.3-1.4-0.3-1.9-0.4
					c-0.7-0.1-2.9-0.5-3.1,0.6c0,0,0,0,0,0c-0.5,2.2,0.9,4.4,2.3,5.9c2.4,2.7,5.8,4.5,9.2,5.7c0.6,0.2,5.4,1.8,5.5,1.4
					c0.3-1.1,0.6-2.3,0.8-3.5c0.2-1.1,0.7-2.7,0.3-3.8C109.1,151.9,106.6,151.5,106.2,151.4z"/>
				<g>
					<path class="st3" d="M91.1,146.3C91.1,146.3,91.1,146.3,91.1,146.3C91.1,146.3,91.1,146.3,91.1,146.3
						C91.1,146.3,91.1,146.3,91.1,146.3z"/>
					<path class="st3" d="M108.8,151c-2.3-0.5-4.5-1.1-6.7-2.1c-1.9-0.9-3.9-2-5.6-3.3c-0.7-0.5-2.4-0.4-3.2-0.4
						c-0.5,0-1.1,0.1-1.6,0.3c-0.1,0-0.9,0.8-0.6,0.8c0.1,0,0.5-0.3,0.6-0.3c0.2,0,0.5,0,0.8,0c0.5,0,1.1,0.1,1.6,0.2
						c0.8,0.2,1.5,0.3,2.1,0.8c1.9,1.6,4.1,3,6.4,4c1.1,0.5,2.3,1,3.4,1.3c0.7,0.2,1.6,0.2,2.3,0.5c0.2,0.1-0.1,1.6-0.2,1.7
						c-0.2,1.2-0.5,2.4-0.8,3.6c-0.1,0.3-4.7-1.3-5.2-1.5c-4-1.5-9-4.1-10.6-8.4c-0.2-0.5-0.3-1.1-0.4-1.6c0,0,0-0.4-0.1-0.4
						c0,0,0,0,0,0c0,0,0,0,0,0c-0.6,0.5-0.4,1.8-0.2,2.4c0.5,2.2,2,4,3.6,5.5c3.4,3.1,7.9,5,12.4,6c0.6,0.1,1.3,0.3,1.9,0.4
						c0.2,0,0.5-1.5,0.5-1.7c0.4-1.7,0.9-3.5,1-5.3c0-0.6,0.2-1.8-0.2-2.3C109.9,151.1,109.2,151.1,108.8,151z"/>
				</g>
			</g>
			<g>
				<path class="st8" d="M127.8,150.2c-3.1,1.4-6.6,2.8-10.1,2.9c-1.2,0-3-0.6-3.7,0.8c-0.5,1-0.2,2.4,0,3.5c0.1,0.4,0,0.9,0.2,1.2
					c0.4,0.5,1,0.9,1.6,1.2c1,0.5,2,0.9,3,1.2c0.1,0,0.4-0.1,0.5-0.2c0.5-0.2,1.1-0.4,1.6-0.6c1.9-0.7,3.7-1.5,5.5-2.4
					c4.3-2.1,8.8-4.8,11.7-8.7c-1.7-0.5-3.3-1-5-1.6C131.4,148.5,129.6,149.4,127.8,150.2z"/>
				<g>
					<path class="st3" d="M133.1,147.5c-0.1,0.4,3.6,1.7,4,1.9c0.2,0.2-4.8,4-5.3,4.3c-2.4,1.5-4.9,2.9-7.5,4
						c-1.4,0.6-2.8,1.2-4.2,1.7c-0.3,0.1-1,0.5-1.3,0.5c-0.3,0.1-1.5-0.5-1.7-0.6c-0.4-0.2-2-0.8-2.1-1.2c0-1.1-0.4-2.2-0.3-3.3
						c0.1-0.8,0.7-0.8,1.4-0.8c0.9,0.1,1.9,0.1,2.8,0c3.6-0.4,7.1-2,10.2-3.7c1.3-0.7,2.6-1.4,3.7-2.4c0.1-0.1,0.5-0.5,0.1-0.4
						c-0.6,0.1-1.2,0.4-1.7,0.7c-3.1,1.3-6.2,2.7-9.6,3.5c-1.3,0.3-2.7,0.6-4,0.6c-1.1,0-2.2-0.3-3.2,0.1c-2.2,0.8-1.7,3.6-1.4,5.3
						c0,0.3,0,0.7,0.1,1c0.2,1,1.2,1.6,2.1,2c0.9,0.5,1.8,0.8,2.7,1.1c0.4,0.1,0.8,0.3,1.2,0.2c3.8-1.3,7.5-3,11-5.1
						c2.1-1.3,4.2-2.7,5.9-4.4c0.2-0.2,3.2-3.6,3.1-3.7C138.5,148.6,133.3,147,133.1,147.5z"/>
				</g>
			</g>
			<g>
				<path class="st8" d="M106.5,158.4c-2.1,0.1-4.7,0.6-6.2,2.1c-0.9,0.9-1.2,2.5-1.6,3.7c-0.5,1.7-0.9,3.4-1.1,5.2
					c-0.2,2.4,0,4.9,0.5,7.2c0.4,1.9,0.4,3.5-0.1,5.4c-0.7,2.7-1.9,5.2-3.4,7.6c0,0,0,0.1-0.1,0.1c4.8,0,9.4-2.7,10.5-7.5
					c1.4-5.9,1.2-12.1,3.1-17.9c0.3-0.9,0.7-1.8,1.3-2.6c0.2-0.3,0.5-0.5,0.8-0.7c0.4-0.2,1-0.3,1.2-0.8
					C112.1,158.9,107.3,158.2,106.5,158.4z"/>
				<g>
					<path class="st3" d="M106.5,158.4C106.5,158.4,106.5,158.4,106.5,158.4C106.5,158.4,106.5,158.4,106.5,158.4z"/>
					<path class="st3" d="M106.5,158.4C106.5,158.4,106.5,158.4,106.5,158.4C106.5,158.3,106.5,158.3,106.5,158.4z"/>
					<path class="st3" d="M110.6,158.7c-0.9-0.3-2-0.5-2.9-0.5c-0.1,0-1.2,0-1.1,0.2c0,0,0,0,0,0c0.1,0.2,1.6,0.4,1.9,0.4
						c0.7,0.2,1.5,0.4,2.1,0.8c0.7,0.5-0.4,0.8-0.7,1c-0.7,0.5-1.1,1.1-1.5,1.8c-1.6,3-2.1,6.8-2.6,10.1c-0.3,2-0.6,4.1-0.9,6.1
						c-0.3,1.8-0.5,3.7-1.4,5.3c-0.8,1.5-2.1,2.6-3.5,3.4c-1,0.5-2.3,1.1-3.4,1.1c1.5-3,3-6.2,3-9.6c0-1.9-0.7-3.9-0.9-5.9
						c-0.2-1.8-0.1-3.6,0.1-5.4c0.2-1.3,0.5-2.6,0.9-3.8c0.3-0.8,0.4-1.8,0.9-2.5c1-1.8,3.9-2.3,5.7-2.7c0.6-0.2,0.4-0.3-0.1-0.3
						c-0.9-0.1-1.9,0.1-2.9,0.3c-1.2,0.3-2.4,0.8-3.3,1.6c-0.7,0.6-1,1.5-1.3,2.4c-0.9,2.4-1.5,4.7-1.8,7.2
						c-0.3,2.6,0.1,5.3,0.6,7.9c0.6,4.7-2.2,9.2-4.6,13c4,0,8-0.6,10.8-3.6c3.1-3.3,3.1-8.4,3.6-12.7c0.3-2.3,0.5-4.5,1-6.7
						c0.3-1.8,0.6-4.3,1.9-5.7c0.5-0.7,1.5-0.7,1.9-1.5C112.4,159.5,111.3,158.9,110.6,158.7z"/>
					<polygon class="st3" points="106.5,158.4 106.5,158.4 106.5,158.4 					"/>
				</g>
			</g>
			<g>
				<path class="st8" d="M127.5,185.5c-1.2-2.8-1.4-6-1.6-9c-0.1-3,0-6,0-9c0-1,0-2.1-0.1-3.1c-0.1-1-0.6-1.7-1.4-2.4
					c-1.9-1.7-4.3-2.8-6.7-3.7c-0.7-0.3-1.7,0.5-2.2,0.9c-0.3,0.3-0.6,0.6-0.4,1c0.1,0.3,0.2,0.5,0.3,0.8c1,3.2,0.9,6.9,1,10.2
					c0.2,3.7,0.2,7.6,1.5,11.1c1.8,4.9,7.2,6.9,12.1,6.5C128.9,188.1,128.1,186.8,127.5,185.5z"/>
				<g>
					<path class="st3" d="M117.7,158.4C117.7,158.5,117.8,158.3,117.7,158.4L117.7,158.4z"/>
					<path class="st3" d="M128.3,184.7c-1.4-3.6-1.4-7.6-1.5-11.4c0-2.6,0.1-5.2-0.1-7.8c-0.1-1.1-0.3-2.2-1-3
						c-0.8-0.9-1.8-1.6-2.8-2.1c-1-0.6-2.2-1.1-3.3-1.5c-0.4-0.1-1.4-0.7-1.8-0.5c-0.1,0,1.2,0.8,1.3,0.9c1,0.5,2,1.1,2.9,1.7
						c1,0.7,2,1.4,2.7,2.4c0.6,0.8,0.5,2,0.5,3c0,2.6-0.2,5.3-0.2,7.9c0,4.6,0.2,9.6,2.6,13.6c-2.6-0.4-5.2-0.9-7.1-3
						c-2.3-2.4-2.7-6.2-3-9.3c-0.3-3.5-0.4-7.1-0.8-10.6c-0.2-1.5-0.4-3.1-1.1-4.5c-0.3-0.6,0.3-1.1,0.8-1.5
						c0.2-0.2,0.5-0.3,0.8-0.4c0.1,0,0.4-0.1,0.5-0.1c0.1-0.1-0.8-0.2-0.8-0.2c-0.4,0.1-0.8,0.3-1.1,0.5c-0.3,0.2-0.6,0.4-0.8,0.7
						c-0.4,0.4-0.4,0.6-0.3,1.1c0.6,1.8,0.7,3.8,0.8,5.7c0.2,4.3,0,8.6,0.7,12.9c0.3,2.1,0.9,4.3,2.1,6.1c1.2,1.7,3,3,4.9,3.7
						c3.1,1.2,6.2,1.1,9.5,0.8C130.8,188.2,129.2,187,128.3,184.7z"/>
				</g>
			</g>
			<g>
				<path class="st8" d="M109.4,151.2C109.4,151.2,109.4,151.2,109.4,151.2C108.7,151.7,109,151.5,109.4,151.2z"/>
				<path class="st8" d="M109.4,151.2C109.4,151.2,109.4,151.2,109.4,151.2C109.8,151,110.1,150.8,109.4,151.2z"/>
				<path class="st8" d="M118,152.1c-1.8,0.4-3.4,0.9-5.2,0.1c-0.9-0.4-2.3-1.6-3.3-1c0,0,0,0,0,0c-0.7,0.5-1.1,1.3-1.5,2
					c-0.7,1.4-1.4,3.3-1.1,4.9c0.2,1,0.8,1.7,1.5,2.5c0.6,0.7,1.1,1.5,2.1,1.7c1.8,0.4,3.7-0.3,5.5-0.5c0.8-0.1,1.7,0,2.5-0.4
					c0.6-0.3,1-1,1.2-1.6c0.7-1.9,1.2-4,0.3-5.9C119.4,153,119.1,151.9,118,152.1z"/>
				<polygon class="st8" points="109.4,151.2 109.4,151.2 109.4,151.2 				"/>
				<g>
					<path class="st3" d="M119.9,152.1c-1.1-1.9-3.4-0.4-5-0.4c-1.4,0-2.5-0.8-3.7-1.2c-0.4-0.1-2.4-0.2-1.8,0.8c0,0,0,0,0,0
						c0.3,0.5,1.2,0.8,1.7,1.2c0.9,0.6,1.8,1,2.9,1.2c1.2,0.2,2.3-0.1,3.5-0.3c1-0.2,0.7-0.3,1.2,0.6c0.6,1.1,0.9,2.1,0.6,3.4
						c-0.2,1-0.4,2.6-1.3,3.2c-0.5,0.4-1.1,0.3-1.6,0.4c-0.6,0-1.1,0.1-1.7,0.2c-1.2,0.2-2.4,0.6-3.6,0.5c-1.1-0.1-1.5-0.7-2.2-1.4
						c-0.8-0.9-1.5-1.7-1.6-2.9c0-1.3,0.4-2.7,0.9-3.9c0.1-0.2,1.2-2,1.2-2.1c-0.1-0.2-1.1,0.9-1.2,1.1c-0.4,0.6-0.8,1.3-1,1.9
						c-0.6,1.5-1.1,3.2-0.5,4.8c0.5,1.1,1.5,2.5,2.5,3.2c1.4,1,3.1,0.8,4.7,0.5c0.8-0.1,1.7-0.3,2.5-0.4c0.5,0,1,0,1.5-0.1
						c1.2-0.2,1.9-1,2.4-2c0.7-1.4,1.2-3.2,1.1-4.7C121.2,154.3,120.6,153.2,119.9,152.1z"/>
					<path class="st3" d="M109.4,151.2C109.4,151.2,109.4,151.2,109.4,151.2C109.4,151.2,109.4,151.2,109.4,151.2
						C109.4,151.2,109.4,151.2,109.4,151.2C109.4,151.3,109.4,151.3,109.4,151.2z"/>
				</g>
			</g>
			<g>
				<g>
					<path class="st3" d="M126.4,182.7c-0.8-0.5-1.5-1.1-2.1-1.8c-0.7-0.9-1.3-1.9-1.7-2.9c-0.1-0.2-0.4-1.6-0.6-1.5
						c-0.3,0,0,1.5,0,1.6c0.2,1,0.5,1.9,1,2.8c0.5,0.9,1.2,1.8,2.1,2.5c0.5,0.4,1.1,1,1.8,0.9c0.4,0,0.6-0.7,0.4-0.9
						C126.9,183.1,126.6,182.9,126.4,182.7z"/>
					<path class="st3" d="M122,176.4C122.2,176.4,121.8,176.4,122,176.4L122,176.4z"/>
				</g>
				<g>
					<path class="st3" d="M120.4,165.1C120.3,165.1,120.5,165.1,120.4,165.1L120.4,165.1z"/>
					<path class="st3" d="M117.7,161.5c-0.7,0.9,0.2,1.3,0.9,1.9c0.4,0.4,0.8,0.7,1.2,1.1c0.1,0.1,0.4,0.7,0.6,0.6
						c0.8-0.1-0.8-2.6-1-2.8C119.1,161.8,118.3,160.7,117.7,161.5z"/>
				</g>
				<g>
					<path class="st3" d="M103.4,164.7C103.3,164.7,103.5,164.6,103.4,164.7L103.4,164.7z"/>
					<path class="st3" d="M106,159.9c-0.8,0.3-1.8,0.6-2.4,1.3c-0.5,0.4-0.5,1.1-0.5,1.7c0,0.2,0.1,2,0.4,1.8c0.2-0.1,0.4-2,0.5-2.2
						c0.3-0.8,1.3-1,2.1-1.2c0.4-0.1,2.8-0.5,1.7-1.5C107.3,159.3,106.4,159.8,106,159.9z"/>
				</g>
				<g>
					<path class="st3" d="M129.8,152.3L129.8,152.3C129.8,152.2,129.8,152.2,129.8,152.3z"/>
					<path class="st3" d="M124.2,154.2c-1.1,0.4-2.5,0.6-3.5,1.2c-0.4,0.2-0.4,0.4-0.3,0.8c0.4,1.3,9.6-3.6,9.4-4l0,0
						C129.6,151.9,124.7,154.1,124.2,154.2z"/>
					<polygon class="st3" points="129.8,152.3 129.8,152.3 129.8,152.3 					"/>
					<path class="st3" d="M129.8,152.3L129.8,152.3C129.8,152.3,129.8,152.3,129.8,152.3z"/>
				</g>
				<g>
					<path class="st3" d="M105.6,154.4c-0.9-0.3-1.8-0.6-2.7-0.9c-0.4-0.1-3.9-1.7-4.1-1.4c-0.2,0.3,8,5,8.4,3.3
						C107.3,154.8,106.1,154.6,105.6,154.4z"/>
				</g>
				<g>
					<path class="st3" d="M100.2,178.5c-0.3-0.6-1.2-3.4-2.2-2.8c-1.1,0.7,0.4,2.2,0.8,3c0.5,0.8,1,1.7,1.4,2.5c0.1,0.3,0.7,2,0.9,2
						c0.5,0,0.1-1.9,0-2.1C101,180.3,100.7,179.4,100.2,178.5z"/>
				</g>
			</g>
		</g>
	</g>
</g>
<g>
</g>
<g>
</g>
<g>
</g>
<g>
</g>
<g>
</g>
<g>
</g>
<g>
</g>
<g>
</g>
<g>
</g>
<g>
</g>
<g>
</g>
<g>
</g>
<g>
</g>
<g>
</g>
<g>
</g>
</svg>
