<svg id="圖層_1" data-name="圖層 1" xmlns="http://www.w3.org/2000/svg" viewBox="0 0 220.39 70.68"><defs><style>.cls-1{fill:#fbb03b;}.cls-2{fill:#7f2e00;}.cls-3{fill:#fc7651;}</style></defs><title>logo</title><path class="cls-1" d="M43.23,67.38a28.21,28.21,0,1,1,28.2-28.21A28.24,28.24,0,0,1,43.23,67.38Zm0-53.58A25.37,25.37,0,1,0,68.59,39.17,25.4,25.4,0,0,0,43.23,13.8Z"/><path class="cls-1" d="M43.23,56.59A17.42,17.42,0,1,1,60.64,39.17,17.44,17.44,0,0,1,43.23,56.59Zm0-32.94A15.53,15.53,0,1,0,58.75,39.17,15.54,15.54,0,0,0,43.23,23.65Z"/><path class="cls-2" d="M11,3.78h-.19a.78.78,0,0,0-.78.78V19.87H8.41V4.56a.77.77,0,0,0-.77-.78h-.2a.78.78,0,0,0-.78.78V19.87H5.09V4.56a.78.78,0,0,0-.78-.78H4.12a.78.78,0,0,0-.78.78V19.87H1.75V4.56A.78.78,0,0,0,1,3.78H.78A.78.78,0,0,0,0,4.56v19.6a5.47,5.47,0,0,0,4.24,5.31h0S4.14,46.35,3.34,53,.55,70,5.9,70,9.26,59.6,8.45,53s-.87-23.51-.87-23.51h0a5.48,5.48,0,0,0,4.23-5.31V4.56A.78.78,0,0,0,11,3.78Z"/><path class="cls-2" d="M83.07,53c-.64-5.26-.81-17-.86-21.57V0S67.4,17,78.82,31.4C78.77,36,78.6,47.71,78,53c-.81,6.62-2.79,17,2.56,17S83.88,59.6,83.07,53Z"/><path class="cls-3" d="M112,51a1.83,1.83,0,0,0-.57,1.23c0,.59.35.77.67,1a8.1,8.1,0,0,1,3.59,7c0,4.55-2.15,10.14-8.59,10.14-1.08,0-2.08,0-3-.14s-1.92-.09-2.91-.09-2.21,0-3.3.09-2.18.14-3.3.14a2.22,2.22,0,0,1-2.11-2.41c0-2.82,2.08,0,2.27-7.5l.35-13.09c.19-6.86-2.56-3.73-2.56-6.86a2.41,2.41,0,0,1,2.31-2.55c1.18,0,2.37.09,3.55.14s2.37.18,3.56.18a18.45,18.45,0,0,0,2.24-.18c.73,0,1.5-.14,2.24-.14,5.86,0,7.37,4,7.37,7.45A8.92,8.92,0,0,1,112,51Zm-9.32-2c0,1.77-.06,2.64.93,2.64,1.92,0,2.37-1.91,2.37-4.41,0-2-.48-4.59-2.24-4.59-1.18,0-1.06,1.36-1.06,2.68Zm0,11.09c0,5.28.61,5.41,1.61,5.41,1.82,0,2.46-1.77,2.46-4.13,0-2.78-.57-5.23-2.82-5.23-1,0-1.21.73-1.25,1.68Z"/><path class="cls-3" d="M118.62,56.27c0-4.45-2-2-2-4.73,0-3.59,7.5-4.59,7.79-4.59,1.21,0,1.25.46,1.37,2,0,.55,0,1.59.55,1.59.77,0,1.25-3.59,4-3.59,2.15,0,3.56,2.27,3.56,5.27s-1.83,5.46-3.94,5.46-2.66-2.59-3.49-2.59-.74,3-.74,3.86c0,1.37.1,3.27.26,5,.19,2,2.62.77,2.62,3.5s-2.82,3.09-6.34,3.09c-1.47,0-5.83.09-5.83-3,0-1.91,1.48-1.91,1.83-3.5a32.44,32.44,0,0,0,.35-5Z"/><path class="cls-3" d="M144.43,60.22c0,1.82.1,4.64,1.83,4.64,2.3,0,2-4.27,2-6.45,0-1.5,0-3.46-.12-4.91-.26-2.28-1.83-1.5-1.83-3.41,0-2.68,6.44-3.14,7.66-3.14s1.63,1,1.63,2.55-.07,2.86-.07,4.32V63c0,2.73,1.77,1.46,1.77,3.64,0,3.09-5.67,4-7.43,4-2.47,0-.84-2.72-2.12-2.72-.35,0-.86.68-1.63,1.36a4.77,4.77,0,0,1-3.21,1.36c-6.08,0-5.57-6.82-5.57-13.63S135.11,53,135.11,50s8.07-3,8.33-3c.9,0,1,.59,1,1.73Z"/><path class="cls-3" d="M167.14,62.45c0,4.41,1.09,3.64,1.09,5.37,0,2.81-4.26,2.72-5.58,2.72s-4.55,0-4.55-2.72c0-2.19,1.48-.23,1.57-4.69l.13-6.81c.07-3.37-1.89-2.28-1.89-4.69s7.37-4.68,8-4.68,1.15.87,1.15,1.77c0,.28,0,.55,0,.82,0,.55.16,1.18.64,1.18s.8-.95,1.44-1.9A3.93,3.93,0,0,1,172.55,47c6.63,0,5.51,9.23,5.83,16.14.16,3.59,1.47,2.77,1.47,4.73,0,.81.13,2.72-5.89,2.72-1.15,0-4.23.09-4.23-2.45,0-1.64,1.06-.87,1.22-3.82.16-3.23,1.05-10.5-2-10.5-2.05,0-1.85,3.14-1.85,5.18Z"/><path class="cls-3" d="M190.1,46.82a7.07,7.07,0,0,1,7.33,7c0,2.55-1.34,4.5-3.14,4.5-3.46,0-1.86-5.64-4.39-5.64-1.4,0-2.17,2-2.17,3.87,0,3.36,1.76,6.77,4.29,6.77,2,0,2.69-1.18,3.36-1.18.87,0,1.44,1.36,1.44,2.45,0,2.68-2.88,6.14-7.36,6.14-4.84,0-8.75-5.05-8.75-12C180.71,52.13,184.72,46.82,190.1,46.82Z"/><path class="cls-3" d="M218.82,63.27c0,3.86,1.57,2.91,1.57,4.68,0,2.64-4.1,2.59-5.28,2.59-1,0-4.87,0-4.87-2.32,0-1.31.9-1.27,1.15-3.59a35.86,35.86,0,0,0,.23-4.54c0-2.27,0-6.55-2.31-6.55-1.95,0-1.89,2.37-1.89,4.41v5.27c0,3.78,1.28,3,1.28,4.64,0,2.64-3.65,2.68-4.87,2.68-4.58,0-5.63-1.36-5.63-2.77,0-1.82,1.25-1,1.79-3.95a96.26,96.26,0,0,0,.38-10.64c0-2-.09-4.14-.12-6.18-.07-3.23-2-2.09-2-4.23,0-3.64,8.33-4.59,8.36-4.59,1,0,1,.41,1,1.73l-.2,8.63c0,.87-.06,2.32.77,2.32s1.38-4,5-4c5.89,0,5.47,7.86,5.51,9.13Z"/></svg>