<?xml version="1.0" encoding="utf-8"?>
<!-- Generator: Adobe Illustrator 22.0.1, SVG Export Plug-In . SVG Version: 6.00 Build 0)  -->
<svg version="1.1" id="圖層_1" xmlns="http://www.w3.org/2000/svg" xmlns:xlink="http://www.w3.org/1999/xlink" x="0px" y="0px"
	 viewBox="0 0 330 330" style="enable-background:new 0 0 330 330;" xml:space="preserve">
<style type="text/css">
	.st0{fill:#FFFFFF;stroke:#000000;stroke-miterlimit:10;}
</style>
<rect class="st0" width="330" height="330"/>
<g>
	<rect x="120" y="40" width="10" height="10"/>
	<rect x="200" y="40" width="10" height="10"/>
	<path d="M280,40h-10h-10h-10h-10h-10h-10v10v10v10v10v10v10v10h10h10h10h10h10h10h10v-10V90V80V70V60V50V40H280z M280,60v10v10v10
		v10h-10h-10h-10h-10h-10V90V80V70V60V50h10h10h10h10h10V60z"/>
	<rect x="120" y="60" width="10" height="10"/>
	<polygon points="250,60 240,60 240,70 240,80 240,90 250,90 260,90 270,90 270,80 270,70 270,60 260,60 	"/>
	<rect x="130" y="70" width="10" height="10"/>
	<polygon points="80,90 90,90 90,80 90,70 90,60 80,60 70,60 60,60 60,70 60,80 60,90 70,90 	"/>
	<polygon points="190,90 190,80 200,80 200,70 210,70 210,60 200,60 190,60 190,50 190,40 180,40 180,50 170,50 160,50 160,40 
		150,40 140,40 140,50 130,50 130,60 140,60 150,60 160,60 170,60 170,70 160,70 160,80 170,80 170,90 160,90 160,80 150,80 150,90 
		140,90 140,100 140,110 150,110 150,100 160,100 160,110 160,120 170,120 170,110 170,100 180,100 180,90 	"/>
	<path d="M60,110h10h10h10h10h10v-10V90V80V70V60V50V40h-10H90H80H70H60H50H40v10v10v10v10v10v10v10h10H60z M50,90V80V70V60V50h10
		h10h10h10h10v10v10v10v10v10H90H80H70H60H50V90z"/>
	<polygon points="130,100 130,90 120,90 120,100 120,110 130,110 	"/>
	<polygon points="210,100 210,90 200,90 200,100 200,110 210,110 	"/>
	<polygon points="50,120 40,120 40,130 40,140 40,150 50,150 50,140 60,140 60,130 50,130 	"/>
	<rect x="60" y="120" width="10" height="10"/>
	<polygon points="120,130 120,120 110,120 100,120 100,130 110,130 	"/>
	<rect x="150" y="120" width="10" height="10"/>
	<rect x="260" y="120" width="10" height="10"/>
	<polygon points="280,130 270,130 270,140 280,140 280,150 290,150 290,140 290,130 290,120 280,120 	"/>
	<polygon points="130,130 130,140 120,140 120,150 120,160 130,160 130,150 140,150 150,150 150,140 150,130 140,130 	"/>
	<rect x="170" y="130" width="10" height="10"/>
	<polygon points="260,130 250,130 250,140 250,150 250,160 260,160 260,150 270,150 270,140 260,140 	"/>
	<polygon points="170,150 170,140 160,140 160,150 160,160 170,160 	"/>
	<polygon points="60,160 50,160 50,170 50,180 60,180 60,170 	"/>
	<rect x="100" y="160" width="10" height="10"/>
	<polygon points="160,170 160,160 150,160 140,160 140,170 150,170 	"/>
	<polygon points="280,170 270,170 270,180 280,180 280,190 290,190 290,180 290,170 290,160 280,160 	"/>
	<polygon points="80,170 80,160 90,160 100,160 100,150 110,150 110,140 100,140 100,130 90,130 90,140 90,150 80,150 80,140 
		80,130 70,130 70,140 70,150 70,160 70,170 70,180 80,180 	"/>
	<polygon points="180,170 170,170 170,180 170,190 180,190 180,180 	"/>
	<rect x="60" y="180" width="10" height="10"/>
	<rect x="130" y="180" width="10" height="10"/>
	<rect x="150" y="180" width="10" height="10"/>
	<path d="M200,180h10v-10h10v10h10h10v-10h-10v-10h10v-10h-10v-10h10v-10v-10h-10v10h-10h-10v-10h-10v-10h-10v-10h-10v10v10h10v10
		v10v10h-10v10h10h10v10h-10v10v10h10V180z M220,140v10h-10v-10H220z"/>
	<polygon points="250,180 250,190 260,190 270,190 270,180 260,180 	"/>
	<polygon points="50,190 40,190 40,200 50,200 60,200 60,190 	"/>
	<polygon points="100,190 110,190 110,180 100,180 90,180 90,190 80,190 80,200 70,200 60,200 60,210 70,210 80,210 90,210 100,210 
		110,210 110,200 100,200 	"/>
	<polygon points="110,190 110,200 120,200 130,200 130,190 120,190 	"/>
	<polygon points="170,200 160,200 150,200 150,190 140,190 140,200 140,210 150,210 160,210 160,220 160,230 150,230 150,240 
		160,240 160,250 170,250 170,240 170,230 170,220 180,220 180,210 170,210 	"/>
	<rect x="270" y="200" width="10" height="10"/>
	<polygon points="120,210 120,220 120,230 130,230 130,220 140,220 140,210 130,210 	"/>
	<path d="M250,210v-10h-10v-10h-10h-10v10h-10v-10h-10v10h-10v-10h-10v10v10h10v10h10v10h-10v10v10h10v10h-10v10v10h10v10h10h10v-10
		h-10v-10h10v-10v-10h10v10h10v10h-10v10h10h10v-10v-10h10h10v10h10h10v-10h-10v-10v-10h-10v10h-10v-10h-10v-10h10v-10h-10V210z
		 M240,230v10h-10h-10h-10v-10v-10v-10h10h10h10v10V230z"/>
	<rect x="260" y="210" width="10" height="10"/>
	<polygon points="280,220 280,230 290,230 290,220 290,210 280,210 	"/>
	<path d="M90,220H80H70H60H50H40v10v10v10v10v10v10v10h10h10h10h10h10h10h10v-10v-10v-10v-10v-10v-10v-10h-10H90z M100,240v10v10v10
		v10H90H80H70H60H50v-10v-10v-10v-10v-10h10h10h10h10h10V240z"/>
	<rect x="220" y="220" width="10" height="10"/>
	<polygon points="70,240 60,240 60,250 60,260 60,270 70,270 80,270 90,270 90,260 90,250 90,240 80,240 	"/>
	<polygon points="140,250 140,240 130,240 130,250 130,260 140,260 	"/>
	<rect x="180" y="250" width="10" height="10"/>
	<rect x="120" y="260" width="10" height="10"/>
	<polygon points="160,260 150,260 150,270 150,280 140,280 130,280 120,280 120,290 130,290 140,290 150,290 160,290 160,280 
		170,280 170,270 160,270 	"/>
	<rect x="170" y="260" width="10" height="10"/>
	<rect x="250" y="280" width="10" height="10"/>
	<rect x="280" y="280" width="10" height="10"/>
</g>
</svg>
